<svg width="285" height="216" viewBox="0 0 285 216" fill="none" xmlns="http://www.w3.org/2000/svg">
<mask id="mask0_302_13459" style="mask-type:alpha" maskUnits="userSpaceOnUse" x="-40" y="0" width="325" height="274">
<path d="M60.9373 11.1125C-5.62161 46.6993 -6.81058 44.766 -36.7467 92.1809C-44.58 104.589 -35.6658 147.524 -36.7467 163.507C-39.7957 208.605 -16.5236 259.715 29.9183 270.441C92.8219 284.969 104.099 249.197 189.466 264.716C274.833 280.233 318.136 144.835 254.303 88.3769C190.469 31.9185 127.496 -24.4743 60.9373 11.1125Z" fill="white"/>
</mask>
<g mask="url(#mask0_302_13459)">
<path fill-rule="evenodd" clip-rule="evenodd" d="M150.651 107.844L-6.32504 146.005V260.931L107.3 326.992L267.094 281.817V169.544L150.651 107.844Z" fill="#01133B"/>
<path d="M228.199 159.015C227.938 159.015 227.688 158.907 227.504 158.715C227.32 158.523 227.216 158.262 227.216 157.991C227.216 157.719 227.32 157.458 227.504 157.266C227.688 157.074 227.938 156.966 228.199 156.966C228.46 156.966 228.71 157.074 228.894 157.266C229.078 157.458 229.182 157.719 229.182 157.991C229.182 158.262 229.078 158.523 228.894 158.715C228.71 158.907 228.46 159.015 228.199 159.015ZM207.014 175.694C206.753 175.694 206.503 175.587 206.319 175.394C206.135 175.202 206.031 174.942 206.031 174.67C206.031 174.398 206.135 174.138 206.319 173.946C206.503 173.753 206.753 173.645 207.014 173.645C207.275 173.645 207.525 173.753 207.709 173.946C207.893 174.138 207.997 174.398 207.997 174.67C207.997 174.942 207.893 175.202 207.709 175.394C207.525 175.587 207.275 175.694 207.014 175.694ZM215.661 180.202C215.4 180.202 215.15 180.094 214.966 179.902C214.782 179.71 214.678 179.45 214.678 179.178C214.678 178.906 214.782 178.646 214.966 178.453C215.15 178.261 215.4 178.153 215.661 178.153C215.922 178.153 216.171 178.261 216.356 178.453C216.54 178.646 216.644 178.906 216.644 179.178C216.644 179.45 216.54 179.71 216.356 179.902C216.171 180.094 215.922 180.202 215.661 180.202ZM246.141 170.961C245.881 170.961 245.631 170.854 245.446 170.661C245.262 170.469 245.158 170.209 245.158 169.937C245.158 169.665 245.262 169.405 245.446 169.213C245.63 169.02 245.88 168.912 246.14 168.912C246.401 168.912 246.651 169.02 246.835 169.212C247.02 169.404 247.123 169.665 247.123 169.937C247.123 170.208 247.02 170.469 246.835 170.661C246.651 170.853 246.402 170.961 246.141 170.961ZM167.022 130.39C166.761 130.39 166.511 130.282 166.327 130.09C166.143 129.898 166.039 129.637 166.039 129.366C166.039 129.094 166.143 128.833 166.327 128.641C166.511 128.449 166.761 128.341 167.022 128.341C167.282 128.341 167.532 128.449 167.717 128.641C167.901 128.833 168.004 129.094 168.004 129.366C168.004 129.637 167.901 129.898 167.717 130.09C167.532 130.282 167.282 130.39 167.022 130.39ZM132.218 140.984C131.957 140.984 131.707 140.876 131.523 140.684C131.339 140.491 131.235 140.231 131.235 139.959C131.235 139.687 131.339 139.427 131.523 139.235C131.707 139.043 131.957 138.935 132.218 138.935C132.479 138.935 132.728 139.043 132.913 139.235C133.097 139.427 133.201 139.687 133.201 139.959C133.201 140.231 133.097 140.491 132.913 140.684C132.728 140.876 132.479 140.984 132.218 140.984ZM166.806 202.742C166.545 202.742 166.295 202.634 166.111 202.442C165.927 202.25 165.823 201.989 165.823 201.717C165.823 201.446 165.927 201.185 166.111 200.993C166.295 200.801 166.545 200.693 166.806 200.693C167.066 200.693 167.316 200.801 167.501 200.993C167.685 201.185 167.788 201.446 167.788 201.717C167.788 201.989 167.685 202.25 167.501 202.442C167.316 202.634 167.066 202.742 166.806 202.742ZM164.86 198.111C164.716 198.116 164.572 198.09 164.437 198.035C164.302 197.981 164.179 197.899 164.075 197.794C163.971 197.689 163.888 197.563 163.832 197.424C163.775 197.285 163.746 197.136 163.746 196.985C163.746 196.834 163.775 196.685 163.831 196.546C163.888 196.407 163.97 196.281 164.074 196.176C164.178 196.071 164.301 195.989 164.436 195.934C164.571 195.879 164.715 195.854 164.859 195.858C165.14 195.867 165.407 195.989 165.602 196.199C165.798 196.41 165.908 196.691 165.908 196.984C165.908 197.277 165.799 197.559 165.603 197.769C165.408 197.979 165.141 198.102 164.86 198.111ZM29.1031 153.032C28.8165 153.032 28.5416 152.913 28.3389 152.702C28.1362 152.491 28.0223 152.204 28.0223 151.905C28.0223 151.606 28.1362 151.32 28.3389 151.108C28.5416 150.897 28.8165 150.778 29.1031 150.778C29.3898 150.778 29.6647 150.897 29.8674 151.108C30.0702 151.32 30.184 151.606 30.184 151.905C30.184 152.204 30.0702 152.491 29.8674 152.702C29.6647 152.913 29.3898 153.032 29.1031 153.032ZM36.4531 166.003C36.1925 166.003 35.9425 165.895 35.7582 165.702C35.574 165.51 35.4705 165.25 35.4705 164.978C35.4705 164.706 35.574 164.446 35.7582 164.254C35.9425 164.061 36.1925 163.953 36.4531 163.953C36.7137 163.953 36.9636 164.061 37.1479 164.254C37.3321 164.446 37.4357 164.706 37.4357 164.978C37.4357 165.25 37.3321 165.51 37.1479 165.702C36.9636 165.895 36.7137 166.003 36.4531 166.003ZM42.0736 147.972C41.813 147.972 41.563 147.864 41.3788 147.672C41.1945 147.48 41.091 147.219 41.091 146.947C41.091 146.676 41.1945 146.415 41.3788 146.223C41.563 146.031 41.813 145.923 42.0736 145.923C42.3342 145.923 42.5841 146.031 42.7684 146.223C42.9527 146.415 43.0562 146.676 43.0562 146.947C43.0562 147.219 42.9527 147.48 42.7684 147.672C42.5841 147.864 42.3342 147.972 42.0736 147.972ZM10.0799 149.774C9.81929 149.774 9.56934 149.666 9.38507 149.474C9.20079 149.282 9.09727 149.021 9.09727 148.75C9.09727 148.478 9.20079 148.217 9.38507 148.025C9.56934 147.833 9.81929 147.725 10.0799 147.725C10.3405 147.725 10.5904 147.833 10.7747 148.025C10.959 148.217 11.0625 148.478 11.0625 148.75C11.0625 149.021 10.959 149.282 10.7747 149.474C10.5904 149.666 10.3405 149.774 10.0799 149.774ZM136.325 137.254C136.181 137.259 136.037 137.233 135.902 137.179C135.767 137.124 135.644 137.042 135.54 136.937C135.436 136.832 135.353 136.706 135.297 136.568C135.24 136.429 135.211 136.279 135.211 136.129C135.211 135.978 135.24 135.828 135.297 135.689C135.353 135.55 135.435 135.425 135.539 135.32C135.643 135.214 135.766 135.132 135.901 135.078C136.036 135.023 136.18 134.997 136.324 135.002C136.605 135.01 136.872 135.133 137.068 135.343C137.263 135.553 137.373 135.834 137.373 136.127C137.373 136.42 137.264 136.702 137.068 136.912C136.873 137.123 136.606 137.245 136.325 137.254ZM155.565 126.108C155.304 126.108 155.054 126 154.87 125.808C154.686 125.615 154.582 125.355 154.582 125.083C154.582 124.811 154.686 124.551 154.87 124.359C155.054 124.167 155.304 124.059 155.565 124.059C155.825 124.059 156.075 124.167 156.259 124.359C156.444 124.551 156.547 124.811 156.547 125.083C156.547 125.355 156.444 125.615 156.259 125.808C156.075 126 155.825 126.108 155.565 126.108ZM47.4779 166.679C47.3453 166.685 47.2128 166.663 47.0885 166.615C46.9642 166.566 46.8506 166.492 46.7546 166.396C46.6586 166.301 46.5821 166.186 46.5298 166.059C46.4776 165.932 46.4505 165.795 46.4504 165.656C46.4503 165.518 46.477 165.381 46.5291 165.254C46.5811 165.126 46.6573 165.011 46.7532 164.916C46.849 164.82 46.9625 164.745 47.0867 164.696C47.2109 164.648 47.3433 164.626 47.4759 164.632C47.7287 164.643 47.9675 164.756 48.1425 164.946C48.3175 165.137 48.4153 165.39 48.4156 165.654C48.4159 165.918 48.3185 166.172 48.1439 166.363C47.9692 166.553 47.7307 166.667 47.4779 166.679ZM31.9134 156.311C31.6528 156.311 31.4029 156.203 31.2186 156.01C31.0343 155.818 30.9308 155.558 30.9308 155.286C30.9308 155.014 31.0343 154.754 31.2186 154.562C31.4029 154.369 31.6528 154.261 31.9134 154.261C32.174 154.261 32.4239 154.369 32.6082 154.562C32.7925 154.754 32.896 155.014 32.896 155.286C32.896 155.558 32.7925 155.818 32.6082 156.01C32.4239 156.203 32.174 156.311 31.9134 156.311Z" fill="white"/>
<path fill-rule="evenodd" clip-rule="evenodd" d="M107.41 212.582V327.942L267.094 284.869V169.509L212.059 184.354V202.641L162.028 216.137V197.849L107.41 212.582Z" fill="#BFDBFE"/>
<path fill-rule="evenodd" clip-rule="evenodd" d="M-5.87054 146.265V261.706L107.864 328.414V212.973L-5.87054 146.265ZM25.6918 183.178L67.0428 207.263V227.544L25.6918 203.46V183.178Z" fill="#3B82F6"/>
<path fill-rule="evenodd" clip-rule="evenodd" d="M-1.4567 143.209L48.5619 151.228L70.3119 199.922L135.46 175.313L116.564 131.283L161.044 129.085C168.783 128.702 174.759 121.851 174.392 113.782C174.337 112.561 174.135 111.354 173.791 110.187C172.233 104.889 169.171 100.208 165.008 96.7625C160.846 93.3171 155.779 91.269 150.477 90.8886L107.347 87.7946C102.041 87.4141 96.7122 88.0581 91.6296 89.694L71.1796 96.2756L45.3527 101.221L60.6008 84.5827L52.4747 56.5292L37.1008 45.4951L-14.8192 102.365C-23.7098 112.103 -23.3453 127.511 -14.0056 136.781C-10.5508 140.21 -6.17131 142.454 -1.4567 143.209Z" fill="white" stroke="#01133B" stroke-width="1.26467" stroke-linecap="round" stroke-linejoin="round"/>
<path fill-rule="evenodd" clip-rule="evenodd" d="M26.6098 56.6498L56.8211 24.5413C57.8003 23.5007 59.1343 22.9058 60.5324 22.8862C61.9304 22.8667 63.2793 23.424 64.285 24.4368C64.7817 24.9368 65.1791 25.534 65.4545 26.1942C65.7298 26.8544 65.8778 27.5647 65.8898 28.2845C65.9019 29.0043 65.7778 29.7196 65.5247 30.3894C65.2716 31.0592 64.8944 31.6705 64.4147 32.1883L49.2933 48.5161" fill="white"/>
<path d="M26.6098 56.6498L56.8211 24.5413C57.8003 23.5007 59.1343 22.9058 60.5324 22.8862C61.9304 22.8667 63.2793 23.424 64.285 24.4368C64.7817 24.9368 65.1791 25.534 65.4545 26.1942C65.7298 26.8544 65.8778 27.5647 65.8898 28.2845C65.9019 29.0043 65.7778 29.7196 65.5247 30.3894C65.2716 31.0592 64.8944 31.6705 64.4147 32.1883L49.2933 48.5161" stroke="#01133B" stroke-width="1.327" stroke-linecap="round" stroke-linejoin="round"/>
<path fill-rule="evenodd" clip-rule="evenodd" d="M67.1995 71.0911L74.7165 68.8248C75.3733 68.6268 76.061 68.5657 76.7405 68.6449C77.4199 68.7241 78.0778 68.9421 78.6764 69.2864C79.2751 69.6307 79.8028 70.0946 80.2296 70.6516C80.6563 71.2086 80.9736 71.8477 81.1633 72.5326L81.1692 72.5551C81.5492 73.9479 81.3846 75.4409 80.7113 76.7074C80.038 77.9739 78.911 78.9107 77.5768 79.3128L58.2273 85.1454" fill="white"/>
<path d="M67.1995 71.0911L74.7165 68.8248C75.3733 68.6268 76.061 68.5657 76.7405 68.6449C77.4199 68.7241 78.0778 68.9421 78.6764 69.2864C79.2751 69.6307 79.8028 70.0946 80.2296 70.6516C80.6563 71.2086 80.9736 71.8477 81.1633 72.5326L81.1692 72.5551C81.5492 73.9479 81.3846 75.4409 80.7113 76.7074C80.038 77.9739 78.911 78.9107 77.5768 79.3128L58.2273 85.1454" stroke="#01133B" stroke-width="1.327" stroke-linecap="round" stroke-linejoin="round"/>
<path fill-rule="evenodd" clip-rule="evenodd" d="M49.2822 48.4562L64.4133 32.1182C64.893 31.6003 65.4657 31.1861 66.0989 30.899C66.7321 30.6119 67.4133 30.4577 68.1037 30.4452C68.794 30.4326 69.48 30.562 70.1224 30.8258C70.7648 31.0897 71.3511 31.4829 71.8478 31.9829C72.3444 32.483 72.7418 33.0802 73.0171 33.7404C73.2924 34.4006 73.4403 35.1109 73.4523 35.8307C73.4766 37.2844 72.9461 38.6886 71.9775 39.7345L56.8453 56.0715" fill="white"/>
<path d="M49.2822 48.4562L64.4133 32.1182C64.893 31.6003 65.4657 31.1861 66.0989 30.899C66.7321 30.6119 67.4133 30.4577 68.1037 30.4452C68.794 30.4326 69.48 30.562 70.1224 30.8258C70.7648 31.0897 71.3511 31.4829 71.8478 31.9829C72.3444 32.483 72.7418 33.0802 73.0171 33.7404C73.2924 34.4006 73.4403 35.1109 73.4523 35.8307C73.4766 37.2844 72.9461 38.6886 71.9775 39.7345L56.8453 56.0715" stroke="#01133B" stroke-width="1.327" stroke-linecap="round" stroke-linejoin="round"/>
<path fill-rule="evenodd" clip-rule="evenodd" d="M56.3685 55.8475L71.5006 39.5084C72.4693 38.4627 73.7967 37.8611 75.1908 37.8358C76.585 37.8105 77.9316 38.3637 78.9345 39.3737C79.9375 40.3837 80.5145 41.7677 80.5388 43.2213C80.563 44.6749 80.0324 46.079 79.0638 47.1247L63.9326 63.4628" fill="white"/>
<path d="M56.3685 55.8475L71.5006 39.5084C72.4693 38.4627 73.7967 37.8611 75.1908 37.8358C76.585 37.8105 77.9316 38.3637 78.9345 39.3737C79.9375 40.3837 80.5145 41.7677 80.5388 43.2213C80.563 44.6749 80.0324 46.079 79.0638 47.1247L63.9326 63.4628" stroke="#01133B" stroke-width="1.327" stroke-linecap="round" stroke-linejoin="round"/>
<path fill-rule="evenodd" clip-rule="evenodd" d="M64.0432 63.8217L79.1685 47.4919C80.1554 46.4262 81.5079 45.8129 82.9285 45.787C84.3491 45.7611 85.7213 46.3246 86.7434 47.3535C87.7696 48.3863 88.3635 49.7996 88.396 51.2863C88.4286 52.773 87.8972 54.213 86.9173 55.2936L54.9924 90.5054" fill="white"/>
<path d="M64.0432 63.8217L79.1685 47.4919C80.1554 46.4262 81.5079 45.8129 82.9285 45.787C84.3491 45.7611 85.7213 46.3246 86.7434 47.3535C87.7696 48.3863 88.3635 49.7996 88.396 51.2863C88.4286 52.773 87.8972 54.213 86.9173 55.2936L54.9924 90.5054" stroke="#01133B" stroke-width="1.327" stroke-linecap="round" stroke-linejoin="round"/>
<path fill-rule="evenodd" clip-rule="evenodd" d="M57.5419 98.6991L99.7891 208.815L66.2124 217.42L49.2054 154.329L-10.5155 144.501C-23.7227 142.328 -32.7411 129.403 -30.656 115.631C-29.89 110.566 -27.6621 105.864 -24.269 102.152L25.6897 47.4873L60.9378 86.8423L45.8705 101.034L57.5419 98.6991Z" fill="#EDEEF2" stroke="#01133B" stroke-width="1.327" stroke-linejoin="round"/>
<path d="M47.9849 100.691L15.8605 104.907" stroke="#01133B" stroke-width="1.327" stroke-linecap="round"/>
<path fill-rule="evenodd" clip-rule="evenodd" d="M84.1948 91.1834L127.921 184.319L147.823 179.949L112.76 104.909L125.736 102.117L144.173 143.606L169.97 131.708C181.544 126.37 186.775 112.26 181.656 100.193C179.841 95.9152 176.861 92.287 173.087 89.7584C169.313 87.2298 164.909 85.9121 160.424 85.9685C123.945 86.4275 104.77 86.699 102.898 86.781C99.6169 86.9265 93.3822 88.3936 84.1948 91.1834Z" fill="#EDEEF2" stroke="#01133B" stroke-width="1.327" stroke-linejoin="round"/>
<path d="M125.878 141.743L114.676 101.01L138.365 93.9277L149.568 134.661L125.878 141.743Z" fill="white"/>
<path fill-rule="evenodd" clip-rule="evenodd" d="M62.4526 86.7045L25.5233 43.4717L10.7262 54.3203L52.4723 97.0931L62.4526 86.7045Z" fill="#EDEEF2" stroke="#01133B" stroke-width="1.327" stroke-linejoin="round"/>
<path fill-rule="evenodd" clip-rule="evenodd" d="M48.6992 98.1243L50.9985 96.2218L14.592 58.251V58.9538L48.6992 98.1243Z" fill="#01133B"/>
<path d="M45.3514 101.223L62.9439 128.759L56.8852 136.03C55.3171 137.912 54.5243 140.362 54.6789 142.85C54.8334 145.338 55.9228 147.661 57.7106 149.317L87.4708 176.872M98.1871 86.9766L100.909 112.967L115.484 116.921L121.903 172.135" stroke="#01133B" stroke-width="1.327"/>
<mask id="mask1_302_13459" style="mask-type:alpha" maskUnits="userSpaceOnUse" x="57" y="77" width="22" height="28">
<path d="M57.3983 82.2203L74.0545 77.2432L78.5175 93.4603C79.8381 98.2592 77.1801 103.263 72.5806 104.637C67.981 106.011 63.1819 103.235 61.8613 98.4374L57.3983 82.2203Z" fill="white"/>
</mask>
<g mask="url(#mask1_302_13459)">
<path d="M57.3973 82.2193L74.0544 77.2422L78.5174 93.4594C79.8371 98.2572 77.1791 103.261 72.5795 104.636C67.9799 106.01 63.1809 103.234 61.8602 98.4365L57.3973 82.2193Z" fill="white" stroke="#01133B" stroke-width="1.26467" stroke-linecap="round" stroke-linejoin="round"/>
<path d="M75.0068 87.4611C85.3968 84.3568 91.5814 73.7049 88.8203 63.6687C86.0582 53.6324 75.3968 48.014 65.0068 51.1183C54.6157 54.2236 48.4312 64.8755 51.1933 74.9118C53.9544 84.948 64.6167 90.5665 75.0068 87.4611Z" fill="#01133B"/>
</g>
<path fill-rule="evenodd" clip-rule="evenodd" d="M149.517 137.33L116.019 147.255C114.678 147.652 113.241 147.479 112.022 146.774C110.803 146.069 109.902 144.889 109.515 143.493C109.324 142.807 109.265 142.089 109.341 141.379C109.416 140.669 109.626 139.982 109.956 139.356C110.287 138.731 110.732 138.179 111.267 137.733C111.803 137.288 112.417 136.956 113.075 136.758L113.104 136.748L125.666 133.047" fill="white"/>
<path d="M149.517 137.33L116.019 147.255C114.678 147.652 113.241 147.479 112.022 146.774C110.803 146.069 109.902 144.889 109.515 143.493C109.324 142.807 109.265 142.089 109.341 141.379C109.416 140.669 109.626 139.982 109.956 139.356C110.287 138.731 110.732 138.179 111.267 137.733C111.803 137.288 112.417 136.956 113.075 136.758L113.104 136.748L125.666 133.047" stroke="#01133B" stroke-width="1.327" stroke-linecap="round" stroke-linejoin="round"/>
<path fill-rule="evenodd" clip-rule="evenodd" d="M120.987 104.162L113.39 102.204C112.05 101.858 110.896 100.972 110.182 99.7398C109.468 98.5076 109.253 97.0302 109.583 95.6325L109.588 95.61C109.927 94.2062 110.786 92.9997 111.977 92.2546C113.167 91.5094 114.592 91.2862 115.94 91.6338L135.496 96.6734" fill="white"/>
<path d="M120.987 104.162L113.39 102.204C112.05 101.858 110.896 100.972 110.182 99.7398C109.468 98.5076 109.253 97.0302 109.583 95.6325L109.588 95.61C109.927 94.2062 110.786 92.9997 111.977 92.2546C113.167 91.5094 114.592 91.2862 115.94 91.6338L135.496 96.6734" stroke="#01133B" stroke-width="1.327" stroke-linecap="round" stroke-linejoin="round"/>
<path fill-rule="evenodd" clip-rule="evenodd" d="M94.9862 100.304L94.7543 107.275L100.626 107.49C101.737 107.528 102.787 108.025 103.547 108.871C104.306 109.716 104.712 110.842 104.676 112C104.629 113.347 104.141 114.637 103.293 115.654C102.446 116.672 101.289 117.356 100.016 117.593L99.8138 117.627L90.9113 118.954L91.8694 125.858L100.772 124.532C106.708 123.646 111.179 118.472 111.386 112.246C111.591 106.079 107.014 100.889 101.116 100.531L100.858 100.518L94.9862 100.304Z" fill="white" stroke="#01133B" stroke-width="1.327" stroke-linecap="round" stroke-linejoin="round"/>
<path fill-rule="evenodd" clip-rule="evenodd" d="M95.3662 98.1004L51.6353 96.499L51.1047 112.45C50.6851 125.036 60.1348 135.597 72.2111 136.038C84.2873 136.481 94.416 126.637 94.8346 114.052L95.3662 98.1004Z" fill="white" stroke="#01133B" stroke-width="1.327" stroke-linecap="round" stroke-linejoin="round"/>
<path d="M94.6558 107.754L51.6687 106.202" stroke="#01133B" stroke-width="1.327" stroke-linecap="round" stroke-linejoin="round"/>
<path fill-rule="evenodd" clip-rule="evenodd" d="M125.652 133.11L112.993 136.802C111.685 137.183 110.285 137.007 109.101 136.312C107.917 135.617 107.047 134.461 106.68 133.097V133.096C106.313 131.731 106.481 130.271 107.146 129.035C107.812 127.8 108.92 126.89 110.228 126.506L122.905 122.79" fill="white"/>
<path d="M125.652 133.11L112.993 136.802C111.685 137.183 110.285 137.007 109.101 136.312C107.917 135.617 107.047 134.461 106.68 133.097V133.096C106.313 131.731 106.481 130.271 107.146 129.035C107.812 127.8 108.92 126.89 110.228 126.506L122.905 122.79" stroke="#01133B" stroke-width="1.327" stroke-linecap="round" stroke-linejoin="round"/>
<path fill-rule="evenodd" clip-rule="evenodd" d="M122.906 122.793L110.242 126.506C109.594 126.696 108.916 126.751 108.247 126.667C107.579 126.583 106.932 126.362 106.346 126.017C105.759 125.672 105.243 125.21 104.828 124.657C104.413 124.104 104.106 123.471 103.926 122.795C103.56 121.421 103.728 119.952 104.393 118.707C105.059 117.461 106.168 116.539 107.481 116.141L120.195 112.289" fill="white"/>
<path d="M122.906 122.793L110.242 126.506C109.594 126.696 108.916 126.751 108.247 126.667C107.579 126.583 106.932 126.362 106.346 126.017C105.759 125.672 105.243 125.21 104.828 124.657C104.413 124.104 104.106 123.471 103.926 122.795C103.56 121.421 103.728 119.952 104.393 118.707C105.059 117.461 106.168 116.539 107.481 116.141L120.195 112.289" stroke="#01133B" stroke-width="1.327" stroke-linecap="round" stroke-linejoin="round"/>
<path fill-rule="evenodd" clip-rule="evenodd" d="M120.197 112.293L103.21 117.183C101.835 117.578 100.366 117.391 99.1222 116.663C97.8784 115.936 96.9603 114.726 96.5671 113.297C96.1747 111.872 96.3409 110.343 97.029 109.045C97.7172 107.748 98.871 106.789 100.237 106.378L139.708 94.5283" fill="white"/>
<path d="M120.197 112.293L103.21 117.183C101.835 117.578 100.366 117.391 99.1222 116.663C97.8784 115.936 96.9603 114.726 96.5671 113.297C96.1747 111.872 96.3409 110.343 97.029 109.045C97.7172 107.748 98.871 106.789 100.237 106.378L139.708 94.5283" stroke="#01133B" stroke-width="1.327" stroke-linecap="round" stroke-linejoin="round"/>
<path fill-rule="evenodd" clip-rule="evenodd" d="M132.649 92.2407L143.671 89.0605L156.453 140.402L145.91 145.318L132.649 92.2407Z" fill="#EDEEF2" stroke="#01133B" stroke-width="1.327" stroke-linejoin="round"/>
<path fill-rule="evenodd" clip-rule="evenodd" d="M55.7772 42.4813C63.9475 40.0398 72.4717 44.9698 74.8171 53.4928C74.8712 53.6906 74.9223 53.8893 74.9694 54.0891L76.4424 60.3366C78.4783 68.9764 73.6056 77.7463 65.4067 80.196C57.2982 82.619 48.838 77.7269 46.5102 69.2674L44.8162 63.111C42.3793 54.254 47.2865 45.018 55.7772 42.4813Z" fill="#01133B"/>
<path fill-rule="evenodd" clip-rule="evenodd" d="M74.0471 57.0898L76.8299 67.2049C78.9434 74.8858 74.6878 82.8955 67.3251 85.0962C59.9614 87.2958 52.2794 82.8525 50.1658 75.1716L47.3831 65.0576C45.2695 57.3767 49.5252 49.367 56.8878 47.1663C64.2515 44.9667 71.9335 49.41 74.0471 57.0898Z" fill="white" stroke="#01133B" stroke-width="1.29081" stroke-linecap="round" stroke-linejoin="round"/>
<path d="M65.1128 77.6471C63.9105 78.0059 62.6208 77.8522 61.5272 77.2197C60.4336 76.5873 59.6256 75.5278 59.281 74.2744" stroke="#01133B" stroke-width="1.29081" stroke-linecap="round" stroke-linejoin="round"/>
<path fill-rule="evenodd" clip-rule="evenodd" d="M47.6265 49.1002C43.359 48.0818 40.9251 50.2169 40.3238 55.5075C39.8482 59.6978 41.3781 65.0479 48.502 74.6661C48.7978 75.0657 48.275 70.3395 48.501 69.775C50.2157 65.4935 51.0735 61.0072 51.0735 56.3159C51.0735 51.0047 49.9238 48.6002 47.6265 49.1002Z" fill="#01133B"/>
<path fill-rule="evenodd" clip-rule="evenodd" d="M48.3152 68.5088L46.4679 68.7536C45.8897 68.8303 45.3361 69.0444 44.8498 69.3793C44.3634 69.7143 43.9573 70.1611 43.6628 70.6855C43.3682 71.2099 43.193 71.7979 43.1507 72.404C43.1085 73.0101 43.2002 73.6182 43.4189 74.1816C43.9646 75.5889 44.9051 76.7917 46.1173 77.6326C47.3294 78.4735 48.7568 78.9133 50.2126 78.8944L51.1697 78.8831L48.3152 68.5088Z" fill="white" stroke="#01133B" stroke-width="1.29081" stroke-linecap="round" stroke-linejoin="round"/>
<path d="M47.0951 72.2493L47.9834 75.4796M47.6532 74.2789L45.8698 73.4941M64.3575 67.7373L65.8875 71.1387L64.104 72.0342" stroke="#01133B" stroke-width="1.29081" stroke-linecap="round" stroke-linejoin="round"/>
<path d="M54.917 69.4067C56.3673 68.9733 57.35 67.917 57.1102 67.0482C56.8715 66.1794 55.5017 65.826 54.0514 66.2594C52.601 66.6927 51.6184 67.749 51.8582 68.6178C52.097 69.4866 53.4667 69.8401 54.917 69.4067Z" stroke="#01133B" stroke-width="0.860538" stroke-linecap="round" stroke-linejoin="round"/>
<path d="M54.9169 69.4052C55.7875 69.145 56.2985 68.2301 56.0597 67.3603C55.8209 66.4915 54.9208 65.9977 54.0512 66.2579C53.1806 66.5181 52.6687 67.433 52.9085 68.3029C53.1472 69.1717 54.0463 69.6655 54.9169 69.4052Z" fill="#01133B"/>
<path d="M69.4654 65.0561C70.9157 64.6227 71.8973 63.5675 71.6586 62.6977C71.4198 61.8289 70.05 61.4754 68.5987 61.9088C67.1484 62.3421 66.1668 63.3984 66.4055 64.2672C66.6453 65.136 68.0151 65.4895 69.4654 65.0561Z" stroke="#01133B" stroke-width="0.860538" stroke-linecap="round" stroke-linejoin="round"/>
<path d="M69.4651 65.0566C70.3347 64.7963 70.8466 63.8814 70.6079 63.0127C70.3681 62.1439 69.469 61.65 68.5984 61.9103C67.7288 62.1695 67.2169 63.0854 67.4566 63.9542C67.6954 64.823 68.5945 65.3168 69.4651 65.0566Z" fill="#01133B"/>
<path fill-rule="evenodd" clip-rule="evenodd" d="M52.0261 47.7163C61.6713 42.0866 69.602 40.2271 75.8169 42.1368C85.1389 45.0024 82.1263 61.4634 63.4587 61.9552C51.015 62.283 47.2034 57.5364 52.0261 47.7163Z" fill="#01133B"/>
<path fill-rule="evenodd" clip-rule="evenodd" d="M45.1212 52.3775C44.9964 47.8859 55.0239 37.3959 61.8835 37.6581C66.4556 37.8344 66.6029 43.1393 62.3256 53.5751C50.9392 55.7707 45.2037 55.3721 45.1212 52.3775Z" fill="#01133B"/>
<path d="M144.172 90.2625L148.467 89.0781" stroke="#01133B" stroke-width="1.327" stroke-linecap="round"/>
<path fill-rule="evenodd" clip-rule="evenodd" d="M132.649 96.2217L142.357 139.508L144.174 138.706L133.739 96.2227L132.649 96.2217Z" fill="#01133B"/>
<path fill-rule="evenodd" clip-rule="evenodd" d="M166.632 138.443C166.769 138.377 166.907 138.314 167.046 138.252C175.742 134.404 185.787 138.639 189.481 147.71L189.565 147.922L226.747 242.602C200.776 254.595 185.582 261.562 181.167 263.5C173.159 249.856 174.987 237.339 172.899 225.976C170.812 214.612 159.268 204.659 157.378 178.27C156.756 169.577 153.09 160.41 146.381 150.77C157.023 143.912 163.774 139.803 166.632 138.443Z" fill="white" stroke="#01133B" stroke-width="1.26467" stroke-linecap="round" stroke-linejoin="round"/>
<path fill-rule="evenodd" clip-rule="evenodd" d="M57.7367 205.731C54.5059 195.079 59.8454 183.655 69.8827 179.74L158.148 145.316C164.558 172.064 169.325 190.589 172.448 200.893C159.028 208.661 145.762 204.231 128.788 208.075C111.815 211.92 104.94 217.568 90.9931 221.556C89.3275 222.033 87.666 222.458 86.0093 222.832C73.7621 225.594 61.5139 218.185 57.7367 205.731Z" fill="white" stroke="#01133B" stroke-width="1.26467" stroke-linecap="round" stroke-linejoin="round"/>
<path d="M191.845 157.779L164.571 171.386L158.706 146.353L174.466 138.67" stroke="#01133B" stroke-width="1.44361" stroke-linecap="round" stroke-linejoin="round"/>
<mask id="mask2_302_13459" style="mask-type:alpha" maskUnits="userSpaceOnUse" x="171" y="113" width="76" height="71">
<path d="M204.268 164.724L193.559 163.326C194.281 160.19 193.308 156.934 190.64 153.554C184.079 145.241 177.726 140.015 171.581 137.875L179.969 123.94C181.668 121.118 183.734 118.556 186.108 116.327L189.197 113.426C189.327 113.304 189.498 113.241 189.673 113.251C189.847 113.261 190.011 113.342 190.128 113.477L245.997 178.174C246.21 178.42 246.363 178.716 246.442 179.037C246.522 179.358 246.526 179.694 246.455 180.017C246.383 180.34 246.238 180.641 246.032 180.893C245.826 181.145 245.564 181.341 245.269 181.466L242.189 182.765C240.442 183.502 238.545 183.769 236.674 183.54C234.802 183.312 233.016 182.596 231.479 181.459L214.46 168.858C211.442 166.624 207.94 165.203 204.268 164.724Z" fill="white"/>
</mask>
<g mask="url(#mask2_302_13459)">
<path d="M192.726 163.898C193.759 160.715 192.851 157.419 190.14 153.983C183.396 145.44 176.889 140.18 170.585 138.258L179.421 123.581C181.151 120.706 183.256 118.095 185.675 115.824L188.764 112.925C188.892 112.804 189.041 112.712 189.203 112.652C189.365 112.592 189.536 112.567 189.708 112.576C190.042 112.594 190.369 112.745 190.611 113.025L246.48 177.721C246.711 177.988 246.889 178.3 247.005 178.639C247.12 178.978 247.17 179.338 247.151 179.697C247.126 180.217 246.958 180.72 246.668 181.144C246.377 181.568 245.977 181.897 245.513 182.092L242.433 183.392C240.585 184.172 238.579 184.454 236.599 184.212C234.62 183.971 232.73 183.213 231.105 182.01L214.085 169.41C211.155 167.24 207.755 165.86 204.188 165.394L192.726 163.898Z" stroke="#01133B" stroke-width="1.327"/>
<path d="M185.172 157.78L194.73 144.235L192.604 125.054" stroke="#01133B" stroke-width="6.74557" stroke-linejoin="round"/>
<path fill-rule="evenodd" clip-rule="evenodd" d="M244.547 184.838L183.428 114.063L187.407 110.328L248.525 181.103L244.547 184.838Z" fill="#01133B"/>
<path fill-rule="evenodd" clip-rule="evenodd" d="M202.462 127.065L196.326 130.135C193.853 131.372 191.113 131.917 188.377 131.718C185.641 131.518 183.001 130.58 180.717 128.996L173.13 123.733L179.261 105.064L195.615 102.553L204.538 118.865L202.462 127.065Z" fill="white" stroke="#01133B" stroke-width="1.327" stroke-linecap="round" stroke-linejoin="round"/>
</g>
<path d="M214.638 171.779L218.056 166.762M209.329 168.623L211.021 161.608M202.593 166.806L203.334 160.684" stroke="#01133B" stroke-width="1.327" stroke-linecap="round" stroke-linejoin="round"/>
<path d="M206.816 129.239L247.211 176.604C247.396 176.821 247.493 177.104 247.483 177.394C247.473 177.684 247.356 177.959 247.156 178.161C244.737 180.61 242.328 182.119 239.932 182.69" stroke="white" stroke-width="1.327" stroke-linecap="round" stroke-linejoin="round"/>
<path fill-rule="evenodd" clip-rule="evenodd" d="M165.807 170.766L160.409 145.316L158.705 146.351L164.57 171.385L165.807 170.766Z" fill="#01133B"/>
</g>
</svg>
