<svg width="400" height="300" viewBox="0 0 400 300" fill="none" xmlns="http://www.w3.org/2000/svg">
<mask id="mask0_302_13543" style="mask-type:alpha" maskUnits="userSpaceOnUse" x="23" y="67" width="312" height="218">
<path d="M209.75 87.3342C273.963 120.234 292.301 98.6102 321.181 142.446C350.062 186.282 330.384 268.202 269.699 281.633C209.013 295.065 198.134 261.994 115.776 276.34C33.418 290.686 -8.35704 165.51 53.226 113.314C114.808 61.1182 145.538 54.4342 209.75 87.3342Z" fill="white"/>
</mask>
<g mask="url(#mask0_302_13543)">
<path d="M209.749 87.3342C273.962 120.234 292.3 98.6102 321.18 142.446C350.061 186.282 330.383 268.202 269.698 281.633C209.012 295.065 198.133 261.994 115.775 276.34C33.4175 290.686 -8.35753 165.51 53.2255 113.314C114.807 61.1182 145.537 54.4342 209.749 87.3342Z" fill="#EFFDF5"/>
<path d="M145.537 22.3838C150.234 83.3378 172.091 120.236 211.109 133.08C250.126 145.924 303.142 127.475 370.157 77.7318" stroke="white" stroke-width="1.32"/>
<path d="M168.625 22.3838C179.023 94.0438 155.668 131.067 98.5596 133.453C12.8966 137.034 74.7856 72.0328 104.01 97.9438C133.235 123.855 130.855 179.961 85.2566 218.416C54.8566 244.052 20.2226 256.87 -18.6494 256.87M345.147 219.232C218.552 211.059 118.134 256.101 43.8946 354.357" stroke="white" stroke-width="1.32"/>
<path d="M12.8975 218.291C95.9375 240.531 149.471 285.887 173.501 354.357" stroke="white" stroke-width="1.32"/>
<path d="M345.146 139.627C289.116 195.511 250.004 211.759 227.81 188.371C194.52 153.289 258.108 125.664 267.488 157.017C276.867 188.371 226.722 213.254 159.96 224.321C115.453 231.699 62.7864 263.976 1.96143 321.15M221.388 354.358C213.153 305.512 223.922 279.312 253.695 275.757C283.467 272.201 316.57 285.302 353.003 315.057M262.846 82.6879C285.404 82.6879 303.691 57.0519 303.691 25.4299C303.691 -6.19312 285.404 -31.8281 262.846 -31.8281C240.287 -31.8281 222 -6.19312 222 25.4299C222 57.0519 240.287 82.6879 262.846 82.6879Z" stroke="white" stroke-width="1.32"/>
<path d="M345.147 175.938C292.109 227.604 269.349 290.241 276.868 363.85" stroke="white" stroke-width="1.32"/>
<path d="M12.8975 148.986C143.894 175.432 246.688 247.053 321.28 363.85" stroke="white" stroke-width="1.32"/>
<path d="M61.0175 22.3838C20.9775 30.5698 6.17448 47.6408 16.6065 73.5968C32.2535 112.531 89.9185 186.156 12.8965 198.926M12.8975 286.324C44.0755 332.759 77.1135 344.368 112.01 321.15C164.357 286.324 182.105 279.094 203.922 286.324C218.467 291.144 231.693 313.821 243.6 354.357" stroke="white" stroke-width="1.32"/>
</g>
<mask id="mask1_302_13543" style="mask-type:alpha" maskUnits="userSpaceOnUse" x="23" y="13" width="353" height="273">
<path d="M368.756 36.511C397.708 80.492 330.97 269.195 270.133 282.671C209.296 296.147 198.389 262.966 115.825 277.36C62.0557 286.734 25.5417 236.737 23.6647 186.258C22.6587 159.226 59.5217 68.906 81.0537 50.641C128.842 19.917 339.803 -7.47099 368.756 36.511Z" fill="white"/>
</mask>
<g mask="url(#mask1_302_13543)">
<mask id="mask2_302_13543" style="mask-type:alpha" maskUnits="userSpaceOnUse" x="40" y="112" width="220" height="200">
<path d="M152.848 130.27C141.636 178.738 134.594 211.511 131.722 228.59C131.078 232.414 130.282 237.537 129.332 243.96C129.104 245.495 128.49 246.948 127.546 248.18C126.602 249.413 125.36 250.385 123.937 251.004C120.002 252.717 116.76 253.831 114.21 254.346C98.4535 257.529 79.7825 254.228 68.1435 248.844C52.6295 241.667 47.1205 252.316 44.3155 259.398C41.5115 266.48 34.9915 279.745 51.5675 286.252C68.1435 292.758 101.997 309.571 167.992 311.341C233.986 313.111 248.723 307.842 255.135 284.087C261.548 260.332 258.883 233.11 256.68 184.629C255.592 160.704 253.837 142.709 251.413 130.644C250.737 127.279 249.128 124.173 246.769 121.68C244.41 119.187 241.397 117.408 238.074 116.547C228.428 114.047 216.686 112.797 202.848 112.797C188.837 112.797 176.645 114.078 166.274 116.641C162.996 117.451 160.006 119.153 157.636 121.559C155.266 123.965 153.609 126.98 152.848 130.27Z" fill="white"/>
</mask>
<g mask="url(#mask2_302_13543)">
<path d="M152.848 130.27C141.636 178.738 134.594 211.511 131.722 228.59C131.078 232.414 130.282 237.537 129.332 243.96C129.104 245.495 128.49 246.948 127.546 248.18C126.602 249.413 125.36 250.385 123.937 251.004C120.002 252.717 116.76 253.831 114.21 254.346C98.4535 257.529 79.7825 254.228 68.1435 248.844C52.6295 241.667 47.1205 252.316 44.3155 259.398C41.5115 266.48 34.9915 279.745 51.5675 286.252C68.1435 292.758 101.997 309.571 167.992 311.341C233.986 313.111 248.723 307.842 255.135 284.087C261.548 260.332 258.883 233.11 256.68 184.629C255.592 160.704 253.837 142.709 251.413 130.644C250.737 127.279 249.128 124.173 246.769 121.68C244.41 119.187 241.397 117.408 238.074 116.547C228.428 114.047 216.686 112.797 202.848 112.797C188.837 112.797 176.645 114.078 166.274 116.641C162.996 117.451 160.006 119.153 157.636 121.559C155.266 123.965 153.609 126.98 152.848 130.27Z" fill="#01133B"/>
<path fill-rule="evenodd" clip-rule="evenodd" d="M248.895 124.427C246.789 121.376 244.296 119.85 241.413 119.85C237.09 119.85 231.928 124.501 231.928 139.861C231.928 155.221 238.349 255.02 226.517 265.652C214.685 276.285 194.307 269.787 181.346 267.276C168.385 264.764 160.217 265.652 145.327 265.652C130.437 265.652 81.2116 256.593 69.6016 249.068C69.8496 241.002 78.3766 220.26 95.1816 186.843C120.059 146.949 132.498 126.144 132.498 124.427C132.498 122.711 149.33 115.595 182.994 103.081L250.301 108.864L248.895 124.427Z" fill="#01133B" stroke="white" stroke-width="1.32"/>
<path fill-rule="evenodd" clip-rule="evenodd" d="M51.5675 286.252C84.6795 296.934 109.917 302.275 127.279 302.275C141.008 302.275 152.535 301.919 161.863 301.208C166.557 300.85 171.277 301.11 175.902 301.981C199.013 306.333 217.751 307.364 232.117 305.076C255.832 301.298 258.775 278.377 259.153 264.307C265.862 262.671 275.616 277.017 288.415 307.344L224.924 321.915L94.0365 320.504L33.0625 298.978L51.5675 286.252Z" fill="#57BE73"/>
</g>
<path d="M335.254 115.533C336.061 110.191 336.574 106.724 336.792 105.133C337.156 102.479 337.68 98.5874 341.004 95.3404C346.784 89.6944 349.878 83.3804 350.146 75.6804C350.626 61.9014 339.843 50.3404 326.062 49.8584C312.28 49.3754 300.719 60.1554 300.239 73.9334C299.94 82.5204 303.485 89.0884 309.465 94.9314C312.752 98.1424 312.782 102.691 313.088 105.369C313.237 106.675 313.519 109.821 313.934 114.808C314.096 116.758 314.968 118.581 316.384 119.93C317.8 121.28 319.662 122.063 321.618 122.131L327.075 122.322C329.033 122.391 330.949 121.738 332.457 120.486C333.965 119.234 334.961 117.471 335.254 115.533Z" stroke="#01133B" stroke-width="1.32" stroke-linecap="round" stroke-linejoin="round"/>
<path d="M313.548 103.976L336.462 104.776M314.486 80.9297L321.508 104.254M337.25 81.7257L328.623 104.501" stroke="#01133B" stroke-width="1.32" stroke-linecap="round" stroke-linejoin="round"/>
<path d="M314.488 80.9285C317.748 81.4725 322.359 79.8255 322.535 74.7745C322.711 69.7236 320.148 67.7185 318.146 68.2505C316.144 68.7835 313.751 71.4855 316.95 76.3055C320.149 81.1255 329.047 82.3875 333.564 75.1605C338.081 67.9335 331.703 62.9795 327.921 67.5775C324.139 72.1755 324.538 82.5935 337.252 81.7245" stroke="#57BE73" stroke-width="2.64" stroke-linecap="round" stroke-linejoin="round"/>
<path d="M335.861 108.938L314.177 111.413M335.197 113.984L314.45 116.352" stroke="#01133B" stroke-width="1.32" stroke-linecap="round" stroke-linejoin="round"/>
<path fill-rule="evenodd" clip-rule="evenodd" d="M324.096 43.4237C327.253 43.5337 330.315 29.2317 330.425 26.0607C330.536 22.8907 328.065 20.2307 324.908 20.1197C321.75 20.0097 319.101 22.4897 318.99 25.6607C318.88 28.8317 320.938 43.3137 324.096 43.4237ZM298.118 54.7847C300.538 52.7547 293.241 40.0747 291.201 37.6447C289.162 35.2137 285.546 34.8887 283.127 36.9187C280.707 38.9487 280.399 42.5657 282.439 44.9967C284.478 47.4277 295.698 56.8147 298.118 54.7847ZM350.629 54.2387C348.356 52.0437 356.517 39.9057 358.721 37.6237C360.925 35.3417 364.554 35.2707 366.827 37.4647C369.1 39.6597 369.155 43.2887 366.951 45.5717C364.747 47.8537 352.902 56.4327 350.629 54.2387Z" fill="#00C16A"/>
<path fill-rule="evenodd" clip-rule="evenodd" d="M195.051 255.689C197.279 244.233 189.981 233.087 178.593 230.551L77.48 208.032C65.4 205.342 53.425 212.956 50.733 225.038C50.693 225.218 50.656 225.398 50.62 225.579C48.173 237.995 56.252 250.043 68.666 252.488L68.723 252.499L170.473 272.272C181.837 274.48 192.841 267.056 195.051 255.689Z" fill="white" stroke="#01133B" stroke-width="1.32" stroke-linecap="round" stroke-linejoin="round"/>
<path fill-rule="evenodd" clip-rule="evenodd" d="M210.059 241.005L208.138 257.356C206.259 273.35 191.927 284.901 175.901 283.338L90.0299 274.963L50.4488 363.863C46.1978 373.41 35.0138 377.704 25.4668 373.454C15.9208 369.204 11.6288 358.019 15.8788 348.472L60.1388 244.648C61.4473 241.578 63.6097 238.948 66.3691 237.072C69.1285 235.195 72.3689 234.15 75.7049 234.061L161.269 231.79L210.059 241.005Z" fill="white" stroke="#01133B" stroke-width="1.32" stroke-linecap="round" stroke-linejoin="round"/>
<path d="M195.78 239.212L192.21 254.496C189.896 264.406 180.531 271.015 170.42 269.873L78.4366 259.487L52.2236 318.126" stroke="#01133B" stroke-width="1.32" stroke-linecap="round" stroke-linejoin="round"/>
<path d="M190.147 258.277C185.858 257.054 182.103 254.427 179.484 250.818C176.865 247.208 175.533 242.824 175.701 238.367L175.79 235.995" stroke="#01133B" stroke-width="1.32" stroke-linecap="round" stroke-linejoin="round"/>
<path d="M189.168 261.694C179.138 258.805 172.405 249.406 172.895 238.975L173.071 235.217" stroke="#01133B" stroke-width="0.528" stroke-linecap="round" stroke-linejoin="round" stroke-dasharray="1.58 1.58"/>
<path fill-rule="evenodd" clip-rule="evenodd" d="M76.2889 207.879C63.4759 205.736 51.3539 214.388 49.2139 227.202C48.9233 228.942 48.8294 230.709 48.9339 232.471L56.4059 358.511L96.7899 355.873L91.9649 232.579" fill="white"/>
<path d="M76.2889 207.879C63.4759 205.736 51.3539 214.388 49.2139 227.202C48.9233 228.942 48.8294 230.709 48.9339 232.471L56.4059 358.511L96.7899 355.873L91.9649 232.579" stroke="#01133B" stroke-width="1.32" stroke-linecap="round" stroke-linejoin="round"/>
<path d="M111.285 232.581L79.975 224.328C78.8518 224.032 77.6747 224.005 76.5391 224.249C75.4035 224.493 74.3413 225.001 73.4389 225.732C72.5364 226.463 71.819 227.397 71.3449 228.457C70.8707 229.518 70.6532 230.675 70.71 231.835L74.586 311.392" stroke="#01133B" stroke-width="1.32" stroke-linecap="round" stroke-linejoin="round"/>
<path fill-rule="evenodd" clip-rule="evenodd" d="M283.397 146.061L257.521 218.363C255.18 227.397 237.831 231.279 228.798 228.939C223.249 227.501 219.128 223.441 216.689 217.923L214.602 212.871L210.056 241.016L149.733 229.759L143.957 221.526L123.584 211.012C115.417 207.877 104.369 171.994 107.504 163.826L133.467 132.485C134.862 130.801 136.629 129.465 138.63 128.583C140.631 127.701 142.809 127.298 144.993 127.404L189.001 129.542L219.365 136.201C222.032 136.785 224.471 138.132 226.386 140.079L237.845 151.729L248.147 119.765" fill="white"/>
<path d="M283.397 146.061L257.521 218.363C255.18 227.397 237.831 231.279 228.798 228.939C223.249 227.501 219.128 223.441 216.689 217.923L214.602 212.871L210.056 241.016L149.733 229.759L143.957 221.526L123.584 211.012C115.417 207.877 104.369 171.994 107.504 163.826L133.467 132.485C134.862 130.801 136.629 129.465 138.63 128.583C140.631 127.701 142.809 127.298 144.993 127.404L189.001 129.542L219.365 136.201C222.032 136.785 224.471 138.132 226.386 140.079L237.845 151.729L248.147 119.765M214.426 214.272L218.957 184.876" stroke="#01133B" stroke-width="1.32" stroke-linecap="round" stroke-linejoin="round"/>
<path d="M173.101 136.083L184.531 152.898L204.914 141.201" stroke="#01133B" stroke-width="1.32" stroke-linecap="round" stroke-linejoin="round"/>
<path fill-rule="evenodd" clip-rule="evenodd" d="M244.434 136.68L282.663 146.384L295.152 112.068L256.698 98.0713L244.434 136.68Z" fill="white"/>
<path fill-rule="evenodd" clip-rule="evenodd" d="M283.118 146.934L309.137 77.6436C309.718 76.0958 309.661 74.3806 308.977 72.8752C308.293 71.3699 307.04 70.1977 305.492 69.6166L305.433 69.5946C303.841 69.0151 302.087 69.0729 300.537 69.756C298.986 70.4391 297.76 71.6947 297.113 73.2606L283.117 107.172" fill="white"/>
<path d="M283.118 146.934L309.137 77.6436C309.718 76.0958 309.661 74.3806 308.977 72.8752C308.293 71.3699 307.04 70.1977 305.492 69.6166L305.433 69.5946C303.841 69.0151 302.087 69.0729 300.537 69.756C298.986 70.4391 297.76 71.6947 297.113 73.2606L283.117 107.172" stroke="#01133B" stroke-width="1.32" stroke-linecap="round" stroke-linejoin="round"/>
<path fill-rule="evenodd" clip-rule="evenodd" d="M289.736 129.422L293.651 119.168C297.087 110.171 292.849 100.061 284.023 96.2044L260.879 86.0884C259.583 85.522 258.12 85.473 256.79 85.9515C255.459 86.43 254.362 87.3996 253.724 88.6614C253.418 89.2662 253.237 89.9265 253.192 90.6028C253.147 91.2791 253.239 91.9575 253.462 92.5975C253.686 93.2375 254.036 93.826 254.491 94.3276C254.947 94.8293 255.499 95.234 256.115 95.5174L275.406 104.402" fill="white"/>
<path d="M289.736 129.422L293.651 119.168C297.087 110.171 292.849 100.061 284.023 96.2044L260.879 86.0884C259.583 85.522 258.12 85.473 256.79 85.9515C255.459 86.43 254.362 87.3996 253.724 88.6614C253.418 89.2662 253.237 89.9265 253.192 90.6028C253.147 91.2791 253.239 91.9575 253.462 92.5975C253.686 93.2375 254.036 93.826 254.491 94.3276C254.947 94.8293 255.499 95.234 256.115 95.5174L275.406 104.402" stroke="#01133B" stroke-width="1.32" stroke-linecap="round" stroke-linejoin="round"/>
<path fill-rule="evenodd" clip-rule="evenodd" d="M275.406 104.402L256.031 95.4803C254.783 94.9056 253.36 94.842 252.066 95.3032C250.772 95.7645 249.71 96.7138 249.106 97.9483C248.813 98.5491 248.643 99.2026 248.606 99.8703C248.569 100.538 248.666 101.206 248.892 101.836C249.117 102.465 249.467 103.043 249.919 103.536C250.372 104.028 250.918 104.425 251.526 104.702L271.519 113.834" fill="white"/>
<path d="M275.406 104.402L256.031 95.4803C254.783 94.9056 253.36 94.842 252.066 95.3032C250.772 95.7645 249.71 96.7138 249.106 97.9483C248.813 98.5491 248.643 99.2026 248.606 99.8703C248.569 100.538 248.666 101.206 248.892 101.836C249.117 102.465 249.467 103.043 249.919 103.536C250.372 104.028 250.918 104.425 251.526 104.702L271.519 113.834" stroke="#01133B" stroke-width="1.32" stroke-linecap="round" stroke-linejoin="round"/>
<path fill-rule="evenodd" clip-rule="evenodd" d="M271.52 113.836L251.456 104.671C250.853 104.396 250.202 104.242 249.54 104.218C248.877 104.194 248.217 104.301 247.596 104.533C246.975 104.764 246.406 105.116 245.921 105.567C245.436 106.019 245.044 106.561 244.769 107.164L244.762 107.179C244.207 108.404 244.161 109.798 244.632 111.057C245.104 112.315 246.055 113.336 247.278 113.894L267.342 123.058" fill="white"/>
<path d="M271.52 113.836L251.456 104.671C250.853 104.396 250.202 104.242 249.54 104.218C248.877 104.194 248.217 104.301 247.596 104.533C246.975 104.764 246.406 105.116 245.921 105.567C245.436 106.019 245.044 106.561 244.769 107.164L244.762 107.179C244.207 108.404 244.161 109.798 244.632 111.057C245.104 112.315 246.055 113.336 247.278 113.894L267.342 123.058" stroke="#01133B" stroke-width="1.32" stroke-linecap="round" stroke-linejoin="round"/>
<path fill-rule="evenodd" clip-rule="evenodd" d="M267.342 123.06L247.927 114.192C246.542 113.559 244.963 113.503 243.537 114.034C242.11 114.566 240.953 115.642 240.321 117.027L240.306 117.061L238.342 121.435C237.936 122.339 237.716 123.315 237.695 124.306C237.675 125.296 237.854 126.281 238.223 127.201C238.591 128.121 239.141 128.957 239.839 129.66C240.538 130.362 241.371 130.917 242.289 131.291L246.609 133.053C247.092 133.25 247.611 133.348 248.133 133.342C248.656 133.335 249.171 133.224 249.65 133.014C250.129 132.805 250.56 132.502 250.92 132.123C251.279 131.743 251.559 131.296 251.743 130.807C252.12 129.799 252.09 128.684 251.659 127.698C251.227 126.712 250.428 125.934 249.432 125.528L247.21 124.625" fill="white"/>
<path d="M267.342 123.06L247.927 114.192C246.542 113.559 244.963 113.503 243.537 114.034C242.11 114.566 240.953 115.642 240.321 117.027L240.306 117.061L238.342 121.435C237.936 122.339 237.716 123.315 237.695 124.306C237.675 125.296 237.854 126.281 238.223 127.201C238.591 128.121 239.141 128.957 239.839 129.66C240.538 130.362 241.371 130.917 242.289 131.291L246.609 133.053C247.092 133.25 247.611 133.348 248.133 133.342C248.656 133.335 249.171 133.224 249.65 133.014C250.129 132.805 250.56 132.502 250.92 132.123C251.279 131.743 251.559 131.296 251.743 130.807C252.12 129.799 252.09 128.684 251.659 127.698C251.227 126.712 250.428 125.934 249.432 125.528L247.21 124.625" stroke="#01133B" stroke-width="1.32" stroke-linecap="round" stroke-linejoin="round"/>
<path fill-rule="evenodd" clip-rule="evenodd" d="M198.97 133.359L201.85 112.878L183.115 110.247L180.235 130.728" fill="white"/>
<path d="M198.97 133.359L201.85 112.878L183.115 110.247L180.235 130.728" stroke="#01133B" stroke-width="1.32" stroke-linecap="round" stroke-linejoin="round"/>
<mask id="mask3_302_13543" style="mask-type:alpha" maskUnits="userSpaceOnUse" x="180" y="110" width="22" height="30">
<path d="M201.849 112.878L183.116 110.248L180.45 129.203C179.722 134.378 183.325 139.162 188.498 139.888C193.671 140.614 198.454 137.008 199.182 131.833L201.849 112.878Z" fill="white"/>
</mask>
<g mask="url(#mask3_302_13543)">
<path d="M196.779 122.305C185.093 120.663 176.853 110.559 178.375 99.7367C179.897 88.9137 190.604 81.4707 202.29 83.1127C213.976 84.7527 222.216 94.8577 220.694 105.681C219.172 116.503 208.465 123.946 196.779 122.305Z" fill="#01133B"/>
</g>
<path fill-rule="evenodd" clip-rule="evenodd" d="M108.29 162.874L102.719 169.835C100.19 172.996 98.3905 176.677 97.4504 180.614C96.5103 184.552 96.4524 188.649 97.281 192.611L112.887 267.267C113.176 268.649 114.002 269.86 115.183 270.634C116.364 271.407 117.805 271.679 119.187 271.391L119.284 271.37C119.977 271.212 120.632 270.918 121.211 270.507C121.791 270.095 122.283 269.574 122.661 268.972C123.039 268.37 123.295 267.699 123.413 266.999C123.532 266.298 123.512 265.581 123.353 264.888L123.35 264.876L117.93 241.408" fill="white"/>
<path d="M108.29 162.874L102.719 169.835C100.19 172.996 98.3905 176.677 97.4504 180.614C96.5103 184.552 96.4524 188.649 97.281 192.611L112.887 267.267C113.176 268.649 114.002 269.86 115.183 270.634C116.364 271.407 117.805 271.679 119.187 271.391L119.284 271.37C119.977 271.212 120.632 270.918 121.211 270.507C121.791 270.095 122.283 269.574 122.661 268.972C123.039 268.37 123.295 267.699 123.413 266.999C123.532 266.298 123.512 265.581 123.353 264.888L123.35 264.876L117.93 241.408" stroke="#01133B" stroke-width="1.32" stroke-linecap="round" stroke-linejoin="round"/>
<path fill-rule="evenodd" clip-rule="evenodd" d="M145.316 231.553L151.01 237.976C151.479 238.504 152.05 238.932 152.69 239.233C153.329 239.534 154.023 239.702 154.729 239.727C155.436 239.751 156.139 239.632 156.798 239.376C157.457 239.12 158.057 238.733 158.561 238.238C159.617 237.2 160.233 235.798 160.284 234.319C160.335 232.84 159.816 231.398 158.834 230.291L144.334 213.935" fill="white"/>
<path d="M145.316 231.553L151.01 237.976C151.479 238.504 152.05 238.932 152.69 239.233C153.329 239.534 154.023 239.702 154.729 239.727C155.436 239.751 156.139 239.632 156.798 239.376C157.457 239.12 158.057 238.733 158.561 238.238C159.617 237.2 160.233 235.798 160.284 234.319C160.335 232.84 159.816 231.398 158.834 230.291L144.334 213.935" stroke="#01133B" stroke-width="1.32" stroke-linecap="round" stroke-linejoin="round"/>
<path fill-rule="evenodd" clip-rule="evenodd" d="M117.929 241.405L123.378 264.999C123.534 265.675 123.822 266.314 124.226 266.878C124.63 267.443 125.142 267.922 125.731 268.287C126.321 268.653 126.977 268.899 127.662 269.01C128.347 269.122 129.047 269.097 129.722 268.936C131.092 268.61 132.277 267.755 133.019 266.559C133.761 265.362 133.999 263.921 133.682 262.549L128.231 238.948" fill="white"/>
<path d="M117.929 241.405L123.378 264.999C123.534 265.675 123.822 266.314 124.226 266.878C124.63 267.443 125.142 267.922 125.731 268.287C126.321 268.653 126.977 268.899 127.662 269.01C128.347 269.122 129.047 269.097 129.722 268.936C131.092 268.61 132.277 267.755 133.019 266.559C133.761 265.362 133.999 263.921 133.682 262.549L128.231 238.948" stroke="#01133B" stroke-width="1.32" stroke-linecap="round" stroke-linejoin="round"/>
<path fill-rule="evenodd" clip-rule="evenodd" d="M128.234 238.946L133.663 262.454C133.981 263.83 134.831 265.023 136.029 265.771C137.226 266.519 138.671 266.762 140.047 266.445L140.113 266.429C141.508 266.088 142.713 265.211 143.466 263.988C144.219 262.765 144.46 261.294 144.137 259.895L138.696 236.339" fill="white"/>
<path d="M128.234 238.946L133.663 262.454C133.981 263.83 134.831 265.023 136.029 265.771C137.226 266.519 138.671 266.762 140.047 266.445L140.113 266.429C141.508 266.088 142.713 265.211 143.466 263.988C144.219 262.765 144.46 261.294 144.137 259.895L138.696 236.339" stroke="#01133B" stroke-width="1.32" stroke-linecap="round" stroke-linejoin="round"/>
<path fill-rule="evenodd" clip-rule="evenodd" d="M138.702 236.338L144.09 259.669C144.424 261.116 145.319 262.372 146.578 263.159C147.838 263.947 149.358 264.202 150.806 263.868L150.827 263.863C152.284 263.52 153.549 262.617 154.345 261.349C155.142 260.081 155.407 258.55 155.083 257.088L140.174 189.783" fill="white"/>
<path d="M138.702 236.338L144.09 259.669C144.424 261.116 145.319 262.372 146.578 263.159C147.838 263.947 149.358 264.202 150.806 263.868L150.827 263.863C152.284 263.52 153.549 262.617 154.345 261.349C155.142 260.081 155.407 258.55 155.083 257.088L140.174 189.783" stroke="#01133B" stroke-width="1.32" stroke-linecap="round" stroke-linejoin="round"/>
<path d="M98.5537 186.51L135.605 179.312L146.107 233.308L109.056 240.505L98.5537 186.51Z" fill="white"/>
<path fill-rule="evenodd" clip-rule="evenodd" d="M206.167 133.336L189.833 246.504C189.234 250.653 189.685 254.887 191.144 258.817C192.604 262.747 195.025 266.249 198.187 269.002L221.394 289.207L224.454 228.008C233.087 237.656 247.906 238.478 257.554 229.846C260.623 227.1 262.914 223.595 264.197 219.682L285.351 155.187L235.106 138.331V152.528L234.854 148.185C234.709 145.696 233.755 143.322 232.137 141.425C230.519 139.528 228.326 138.212 225.891 137.676L206.167 133.336Z" fill="#F1F5F9" stroke="#01133B" stroke-width="1.32" stroke-linecap="round" stroke-linejoin="round"/>
<path d="M233.076 149.353L228.788 169.13M224.474 227.971L217.506 221.258M218.957 136.083L206.095 159.467L217.009 172.139C218.178 173.497 218.905 175.179 219.092 176.961C219.28 178.743 218.919 180.54 218.058 182.111L192.355 229.014" stroke="#01133B" stroke-width="1.32" stroke-linecap="round" stroke-linejoin="round"/>
<path fill-rule="evenodd" clip-rule="evenodd" d="M230.932 136.083L225.731 153.289L284.194 178.155L288.416 155.187L230.932 136.083ZM152.516 214.609L151.057 208.167L174.992 129.177L146.653 126.737C143.007 126.423 139.337 126.972 135.942 128.339C132.547 129.706 129.522 131.853 127.11 134.606L99.395 166.25C96.3506 169.726 94.1151 173.834 92.8496 178.278C91.5842 182.723 91.3203 187.392 92.0771 191.95L98.2311 229.014L152.516 214.609Z" fill="#F1F5F9" stroke="#01133B" stroke-width="1.32" stroke-linecap="round" stroke-linejoin="round"/>
<path d="M144.12 175.472L151.723 211.035" stroke="#01133B" stroke-width="1.32" stroke-linecap="round" stroke-linejoin="round"/>
<path fill-rule="evenodd" clip-rule="evenodd" d="M90.916 209.909L151.057 199.15L154.171 214.528L96.789 229.013L90.916 209.909Z" fill="#F1F5F9" stroke="#01133B" stroke-width="1.32" stroke-linecap="round" stroke-linejoin="round"/>
<path d="M162.009 127.736L163.171 151.954L150.926 157.126C149.293 157.816 147.906 158.983 146.947 160.474C145.988 161.966 145.502 163.712 145.553 165.484L146.107 184.876" stroke="#01133B" stroke-width="1.32" stroke-linecap="round" stroke-linejoin="round"/>
<path fill-rule="evenodd" clip-rule="evenodd" d="M231.601 156.98L277.172 179.314L278.303 175.473L232.017 156.108L231.601 156.98ZM104.577 227.466L104.767 228.532L146.872 220.112L146.107 216.599L104.577 227.466ZM197.889 71.4459C188.742 70.1609 180.283 76.5359 178.996 85.6859C178.967 85.8969 178.941 86.1089 178.919 86.3209L178.221 93.1809C177.282 102.403 183.797 110.716 192.974 112.005C202.051 113.28 210.445 106.953 211.722 97.8749L212.678 91.0749C214.014 81.5689 207.393 72.7819 197.889 71.4459Z" fill="#01133B"/>
<path fill-rule="evenodd" clip-rule="evenodd" d="M180.186 89.3506L178.652 100.259C177.487 108.542 183.257 116.2 191.538 117.363C199.82 118.526 207.478 112.754 208.643 104.471L210.177 93.5626C211.341 85.2796 205.572 77.6216 197.29 76.4586C189.009 75.2956 181.351 81.0676 180.186 89.3506Z" fill="white" stroke="#01133B" stroke-width="1.32" stroke-linecap="round" stroke-linejoin="round"/>
<path d="M192.843 109.309C194.195 109.498 195.567 109.143 196.657 108.322C197.747 107.5 198.467 106.279 198.657 104.927" stroke="#01133B" stroke-width="1.32" stroke-linecap="round" stroke-linejoin="round"/>
<path fill-rule="evenodd" clip-rule="evenodd" d="M207.583 77.0571C211.834 75.5771 214.67 77.5341 216.091 82.9271C217.217 87.1991 216.358 94.1001 210.059 105.152C209.797 105.61 209.98 99.1741 209.653 98.6221C207.175 94.4451 205.593 89.9241 204.909 85.0601C204.135 79.5551 205.026 76.8871 207.583 77.0571Z" fill="#01133B"/>
<path fill-rule="evenodd" clip-rule="evenodd" d="M209.419 98.872L211.198 98.849C211.755 98.8415 212.306 98.9619 212.809 99.2011C213.311 99.4403 213.753 99.7917 214.098 100.228C214.444 100.665 214.684 101.175 214.801 101.719C214.919 102.264 214.909 102.828 214.774 103.368C214.437 104.717 213.701 105.934 212.661 106.858C211.622 107.782 210.328 108.371 208.948 108.547L208.042 108.662L209.419 98.872Z" fill="white" stroke="#01133B" stroke-width="1.32" stroke-linecap="round" stroke-linejoin="round"/>
<path d="M211.049 102.103L210.62 105.151M210.779 104.02L212.365 103.069M192.213 98.9189L191.055 102.677L193.114 103.335" stroke="#01133B" stroke-width="1.32" stroke-linecap="round" stroke-linejoin="round"/>
<path d="M202.664 99.2139C201.033 98.9849 199.817 98.0399 199.949 97.1019C200.081 96.1649 201.51 95.5909 203.142 95.8199C204.773 96.0489 205.988 96.9939 205.856 97.9319C205.725 98.8689 204.295 99.4429 202.664 99.2139Z" stroke="#01133B" stroke-width="0.918" stroke-linecap="round" stroke-linejoin="round"/>
<path d="M202.664 99.2133C201.685 99.0753 200.999 98.2043 201.131 97.2673C201.263 96.3303 202.163 95.6813 203.142 95.8193C204.12 95.9563 204.807 96.8273 204.675 97.7643C204.543 98.7023 203.643 99.3503 202.664 99.2133Z" fill="#01133B"/>
<path d="M186.304 96.915C184.672 96.685 183.457 95.74 183.589 94.803C183.721 93.866 185.15 93.291 186.781 93.52C188.412 93.75 189.628 94.695 189.496 95.632C189.364 96.57 187.935 97.144 186.304 96.915Z" stroke="#01133B" stroke-width="0.918" stroke-linecap="round" stroke-linejoin="round"/>
<path d="M186.304 96.9133C185.325 96.7763 184.638 95.9053 184.77 94.9683C184.902 94.0303 185.802 93.3823 186.781 93.5193C187.76 93.6573 188.446 94.5283 188.314 95.4653C188.183 96.4023 187.282 97.0513 186.304 96.9133Z" fill="#01133B"/>
<path fill-rule="evenodd" clip-rule="evenodd" d="M202.63 76.2911C191.381 71.9191 182.536 71.1951 176.096 74.1191C166.436 78.5041 172.094 95.1091 192.346 92.7861C205.848 91.2381 209.275 85.7391 202.63 76.2911Z" fill="#01133B"/>
<path fill-rule="evenodd" clip-rule="evenodd" d="M210.774 80.0717C210.254 75.3967 197.882 66.0447 190.505 67.3587C185.587 68.2347 186.202 73.7567 192.349 83.9247C204.979 84.4727 211.121 83.1887 210.774 80.0717Z" fill="#01133B"/>
</g>
</svg>
