<svg width="167" height="125" viewBox="0 0 167 125" fill="none" xmlns="http://www.w3.org/2000/svg">
<rect width="166.667" height="125" fill="white"/>
<mask id="mask0_950_7123" style="mask-type:alpha" maskUnits="userSpaceOnUse" x="18" y="18" width="131" height="92">
<path d="M96.6816 26.8706C123.504 40.6248 131.164 31.5852 143.227 49.9106C155.291 68.2364 147.071 102.484 121.723 108.099C96.3741 113.714 91.8295 99.8881 57.4279 105.886C23.0266 111.883 5.57663 59.5527 31.3 37.7314C57.0237 15.9106 69.8595 13.1164 96.6816 26.8706Z" fill="white"/>
</mask>
<g mask="url(#mask0_950_7123)">
<path d="M96.6816 26.8706C123.504 40.6248 131.164 31.5852 143.227 49.9106C155.291 68.2364 147.071 102.484 121.723 108.099C96.3741 113.714 91.8295 99.8881 57.4279 105.886C23.0266 111.883 5.57663 59.5527 31.3 37.7314C57.0237 15.9106 69.8595 13.1164 96.6816 26.8706Z" fill="#F2F5FF"/>
<path d="M69.8594 -0.282227C71.8215 25.1999 80.9515 40.6257 97.2494 45.9949C113.547 51.3644 135.693 43.6515 163.685 22.8565" stroke="white" stroke-width="0.55"/>
<path d="M79.5032 -0.282227C83.8469 29.6757 74.0911 45.1532 50.2365 46.1511C14.4544 47.6478 40.3061 20.474 52.5132 31.3065C64.7203 42.1386 63.7265 65.594 44.6798 81.6699C31.9819 92.3874 17.5144 97.7461 1.27734 97.7461M153.238 82.0115C100.358 78.5949 58.4132 97.4249 27.4028 138.502" stroke="white" stroke-width="0.55"/>
<path d="M14.4551 81.6182C49.1413 90.9161 71.5034 109.877 81.5409 138.502" stroke="white" stroke-width="0.55"/>
<path d="M153.238 48.7322C129.833 72.0947 113.496 78.8872 104.226 69.1097C90.3201 54.4439 116.881 42.8947 120.799 56.0022C124.717 69.1097 103.771 79.5122 75.8842 84.1389C57.293 87.2234 35.2938 100.717 9.88672 124.619M101.543 138.502C98.1034 118.082 102.602 107.128 115.038 105.642C127.474 104.156 141.301 109.633 156.52 122.072M118.86 24.9284C128.283 24.9284 135.922 14.2118 135.922 0.991354C135.922 -12.2286 128.283 -22.9453 118.86 -22.9453C109.438 -22.9453 101.799 -12.2286 101.799 0.991354C101.799 14.2114 109.438 24.9284 118.86 24.9284Z" stroke="white" stroke-width="0.55"/>
<path d="M153.237 63.9121C131.083 85.5109 121.576 111.697 124.717 142.47" stroke="white" stroke-width="0.55"/>
<path d="M14.4551 52.6455C69.1734 63.7013 112.112 93.643 143.269 142.471" stroke="white" stroke-width="0.55"/>
<path d="M34.5551 -0.282227C17.8301 3.14027 11.6467 10.2769 16.0042 21.1282C22.5405 37.4049 46.6276 68.1844 14.4551 73.5228M14.4551 110.06C27.4784 129.472 41.2788 134.325 55.8555 124.619C77.7209 110.06 85.1347 107.037 94.2476 110.06C100.323 112.074 105.848 121.555 110.822 138.502" stroke="white" stroke-width="0.55"/>
<path d="M149.497 85.5674H18.7803V111.601H149.497V85.5674Z" fill="#F2F5FF"/>
<path d="M7.41406 85.4268H166.914" stroke="#01133B" stroke-width="0.539167" stroke-linecap="round" stroke-linejoin="round"/>
</g>
<mask id="mask1_950_7123" style="mask-type:alpha" maskUnits="userSpaceOnUse" x="40" y="42" width="14" height="18">
<path d="M40.085 45.9933L47.4687 42.707L53.6095 56.4962L46.2262 59.7824L40.085 45.9933Z" fill="white"/>
</mask>
<g mask="url(#mask1_950_7123)">
<path d="M40.084 45.9927L47.4677 42.7061L53.6086 56.4952L46.2248 59.7819L40.084 45.9927Z" fill="white" stroke="#01133B" stroke-width="0.576667" stroke-linecap="round" stroke-linejoin="round"/>
<path d="M50.5419 48.3473C55.1477 46.2969 57.3414 41.1765 55.441 36.9098C53.541 32.6432 48.2669 30.8461 43.6606 32.8965C39.0548 34.9465 36.861 40.0673 38.7614 44.334C40.6614 48.6007 45.9356 50.3973 50.5419 48.3473Z" fill="#01133B"/>
</g>
<path d="M90.4082 73.2457L90.5924 83.6644L108.504 83.3553L108.32 72.9365L90.4082 73.2457Z" fill="white"/>
<path fill-rule="evenodd" clip-rule="evenodd" d="M101.847 77.7566L107.137 77.8695V78.4628L105.778 78.4624C105.398 78.4623 105.021 78.537 104.67 78.6823C104.319 78.8276 104 79.0407 103.731 79.3094C103.462 79.5781 103.249 79.8971 103.103 80.2482C102.958 80.5994 102.883 80.9757 102.883 81.3558V81.3628C102.885 82.1331 103.193 82.871 103.738 83.4148C104.284 83.9587 105.022 84.2641 105.793 84.2641L107.796 84.2645C110.506 84.2649 112.702 82.0699 112.701 79.3616V77.7045C112.7 74.0808 109.761 71.1428 106.136 71.1424H106.136L87.3164 71.1387" fill="white"/>
<path d="M101.847 77.7566L107.137 77.8695V78.4628L105.778 78.4624C105.398 78.4623 105.021 78.537 104.67 78.6823C104.319 78.8276 104 79.0407 103.731 79.3094C103.462 79.5781 103.249 79.8971 103.103 80.2482C102.958 80.5994 102.883 80.9757 102.883 81.3558V81.3628C102.885 82.1331 103.193 82.871 103.738 83.4148C104.284 83.9587 105.022 84.2641 105.793 84.2641L107.796 84.2645C110.506 84.2649 112.702 82.0699 112.701 79.3616V77.7045C112.7 74.0808 109.761 71.1428 106.136 71.1424H106.136L87.3164 71.1387" stroke="#01133B" stroke-width="0.576667" stroke-linecap="round" stroke-linejoin="round"/>
<path fill-rule="evenodd" clip-rule="evenodd" d="M101.847 77.7566L107.137 77.8695V78.4628L105.778 78.4624C105.398 78.4623 105.021 78.537 104.67 78.6823C104.319 78.8276 104 79.0407 103.731 79.3094C103.462 79.5781 103.249 79.8971 103.103 80.2482C102.958 80.5994 102.883 80.9757 102.883 81.3558V81.3628C102.885 82.1331 103.193 82.871 103.738 83.4148C104.284 83.9587 105.022 84.2641 105.793 84.2641L107.796 84.2645C110.506 84.2649 112.702 82.0699 112.701 79.3616V77.7045C112.7 74.0808 109.761 71.1428 106.136 71.1424H106.136L87.3164 71.1387" fill="white"/>
<path d="M101.847 77.7566L107.137 77.8695V78.4628L105.778 78.4624C105.398 78.4623 105.021 78.537 104.67 78.6823C104.319 78.8276 104 79.0407 103.731 79.3094C103.462 79.5781 103.249 79.8971 103.103 80.2482C102.958 80.5994 102.883 80.9757 102.883 81.3558V81.3628C102.885 82.1331 103.193 82.871 103.738 83.4148C104.284 83.9587 105.022 84.2641 105.793 84.2641L107.796 84.2645C110.506 84.2649 112.702 82.0699 112.701 79.3616V77.7045C112.7 74.0808 109.761 71.1428 106.136 71.1424H106.136L87.3164 71.1387" stroke="#01133B" stroke-width="0.576667" stroke-linecap="round" stroke-linejoin="round"/>
<path fill-rule="evenodd" clip-rule="evenodd" d="M88.2051 86.3255L102.889 86.328C103.644 86.3284 104.37 86.0321 104.908 85.503C105.447 84.9739 105.756 84.2543 105.77 83.4992C105.782 82.7614 105.501 82.0489 104.989 81.5182C104.476 80.9876 103.773 80.6823 103.035 80.6696L102.987 80.6692L96.1222 80.668" fill="white"/>
<path d="M88.2051 86.3255L102.889 86.328C103.644 86.3284 104.37 86.0321 104.908 85.503C105.447 84.9739 105.756 84.2543 105.77 83.4992C105.782 82.7614 105.501 82.0489 104.989 81.5182C104.476 80.9876 103.773 80.6823 103.035 80.6696L102.987 80.6692L96.1222 80.668" stroke="#01133B" stroke-width="0.55" stroke-linecap="round" stroke-linejoin="round"/>
<path fill-rule="evenodd" clip-rule="evenodd" d="M46.5183 53.1816C48.5732 52.1939 50.8868 51.8778 53.1313 52.2781C55.3758 52.6784 57.4374 53.7748 59.0242 55.412L72.0104 68.8057L92.1742 68.4578L92.5025 87.0512L62.0342 87.577C59.2048 87.6252 56.4262 86.8223 54.0586 85.2724C51.6911 83.7224 49.8438 81.497 48.7562 78.8845L42.475 63.8037C40.7867 59.7495 42.5625 55.0837 46.5183 53.1816Z" fill="#EDEEF2" stroke="#01133B" stroke-width="0.55" stroke-linejoin="round"/>
<path d="M75.1274 68.7723L65.8458 69.1711L59.9512 60.5186" stroke="#01133B" stroke-width="0.55" stroke-linecap="round" stroke-linejoin="round"/>
<path d="M47.9766 52.6392C50.0946 52.1668 52.3076 52.3738 54.3013 53.2308C56.295 54.0879 57.9679 55.5514 59.0824 57.4134L59.8186 58.6426L61.4745 58.9155C61.5185 60.0501 61.8068 61.1619 62.3197 62.1749C62.8327 63.188 63.5581 64.0784 64.4466 64.7855L69.7266 68.9884" stroke="#01133B" stroke-width="0.55" stroke-linecap="round" stroke-linejoin="round"/>
<path fill-rule="evenodd" clip-rule="evenodd" d="M86.4172 66.7256L92.5701 67.2714L92.9385 88.156L85.8701 88.8231L86.4172 66.7256Z" fill="#EDEEF2" stroke="#01133B" stroke-width="0.55" stroke-linejoin="round"/>
<path fill-rule="evenodd" clip-rule="evenodd" d="M93.1367 71.1941L93.7379 86.1862L92.9071 86.2003L92.6429 71.2024L93.1367 71.1941ZM37.4604 30.2937C41.2471 28.6083 45.6846 30.3128 47.3721 34.1012C47.4129 34.1928 47.4521 34.2862 47.4892 34.3795L48.2979 36.412C49.8404 40.287 48.05 44.6878 44.2413 46.3833C40.4763 48.0591 36.0642 46.3641 34.3871 42.5974L33.5025 40.612C31.7463 36.6678 33.5179 32.0483 37.4604 30.2937Z" fill="#01133B"/>
<path fill-rule="evenodd" clip-rule="evenodd" d="M48.2042 34.9538L50.1217 39.2596C51.5755 42.5238 50.1088 46.3467 46.8463 47.7992C43.5838 49.2513 39.7609 47.7825 38.3072 44.5188L36.3897 40.2125C34.9359 36.9488 36.4022 33.1255 39.6647 31.6734C42.9276 30.2213 46.7505 31.69 48.2042 34.9538Z" fill="white" stroke="#01133B" stroke-width="0.588333" stroke-linecap="round" stroke-linejoin="round"/>
<path fill-rule="evenodd" clip-rule="evenodd" d="M48.6465 37.335L49.8098 37.9445L50.4402 38.5645L49.9202 40.1954L48.6536 38.7675L48.6465 37.335Z" fill="white"/>
<path d="M48.7807 43.7106C48.2477 43.9476 47.6423 43.9631 47.0978 43.7539C46.5533 43.5446 46.1141 43.1277 45.877 42.5947" stroke="#01133B" stroke-width="0.588333" stroke-linecap="round" stroke-linejoin="round"/>
<path fill-rule="evenodd" clip-rule="evenodd" d="M36.6288 32.3369C34.5938 32.1619 33.6026 33.2665 33.6543 35.6494C33.6951 37.5361 34.4659 40.8848 38.3547 44.6827C38.5159 44.8407 38.2497 41.7036 38.3193 41.439C38.8451 39.4307 38.9618 37.3877 38.6697 35.3094C38.3393 32.9565 37.6588 31.9661 36.6288 32.3369Z" fill="#01133B"/>
<path fill-rule="evenodd" clip-rule="evenodd" d="M34.3402 32.2117C33.3335 32.1055 30.8956 32.6792 30.9735 36.2534C31.0143 38.1405 32.3693 42.6896 36.5068 45.34C36.6648 45.4409 35.5685 42.308 35.6381 42.043C36.1639 40.035 36.2806 37.9917 35.9885 35.9134C35.4927 32.3842 35.3468 32.3175 34.3402 32.2117Z" fill="#01133B"/>
<path fill-rule="evenodd" clip-rule="evenodd" d="M38.2249 41.0215L37.4916 41.2215C37.2621 41.2841 37.0501 41.3986 36.8719 41.5561C36.6936 41.7135 36.5539 41.9098 36.4634 42.1298C36.373 42.3498 36.3342 42.5875 36.3502 42.8249C36.3661 43.0622 36.4363 43.2927 36.5553 43.4986C36.8524 44.0132 37.2981 44.4261 37.8338 44.6833C38.3695 44.9404 38.9704 45.0298 39.5578 44.9398L39.944 44.8806" fill="white"/>
<path d="M38.2249 41.0215L37.4916 41.2215C37.2621 41.2841 37.0501 41.3986 36.8719 41.5561C36.6936 41.7135 36.5539 41.9098 36.4634 42.1298C36.373 42.3498 36.3342 42.5875 36.3502 42.8249C36.3661 43.0622 36.4363 43.2927 36.5553 43.4986C36.8524 44.0132 37.2981 44.4261 37.8338 44.6833C38.3695 44.9404 38.9704 45.0298 39.5578 44.9398L39.944 44.8806M37.9365 42.5406L38.4716 43.7423M38.2728 43.2961L37.5091 43.0927" stroke="#01133B" stroke-width="0.588333" stroke-linecap="round" stroke-linejoin="round"/>
<path fill-rule="evenodd" clip-rule="evenodd" d="M49.2695 37.4229L51.3112 39.267L50.1941 40.4629" fill="white"/>
<path d="M49.2695 37.4229L51.3112 39.267L50.1941 40.4629" stroke="#01133B" stroke-width="0.588333" stroke-linecap="round" stroke-linejoin="round"/>
<path d="M46.6483 39.0498C47.2913 38.7636 47.6792 38.2319 47.5146 37.8623C47.35 37.4927 46.6954 37.4252 46.0525 37.7115C45.4096 37.9977 45.0217 38.5294 45.1863 38.899C45.3508 39.2682 46.0054 39.3361 46.6483 39.0498Z" stroke="#01133B" stroke-width="0.392083" stroke-linecap="round" stroke-linejoin="round"/>
<path d="M46.6492 39.0498C47.035 38.8777 47.2142 38.4389 47.0496 38.0698C46.8854 37.7002 46.4392 37.5398 46.0533 37.7114C45.6675 37.8831 45.4883 38.3218 45.6529 38.6914C45.8171 39.061 46.2633 39.221 46.6492 39.0498Z" fill="#01133B"/>
<path fill-rule="evenodd" clip-rule="evenodd" d="M36.7416 31.9606C40.8466 28.8397 44.3936 27.501 47.3832 27.9439C51.867 28.6081 51.4999 36.096 42.9086 37.526C37.1811 38.4793 35.1253 36.6243 36.7416 31.9606Z" fill="#01133B"/>
<path fill-rule="evenodd" clip-rule="evenodd" d="M33.6376 34.3581C33.3005 32.376 38.0339 26.0848 41.7889 26.0694C44.2922 26.059 44.6905 28.3998 42.9839 33.0919C36.9776 35.2569 33.8626 35.679 33.638 34.3577L33.6376 34.3581ZM24.3964 34.696L25.3922 34.2735C27.4472 33.401 29.8205 34.3598 30.693 36.4152L51.4176 85.2394L41.5518 85.4573L22.2551 39.9969C21.3826 37.9415 22.3414 35.5685 24.3968 34.696H24.3964Z" fill="#01133B"/>
<path d="M121.332 58.4658V85.2721M139.388 58.4658V85.2721M119.38 59.9804H141.191" stroke="#436FFF" stroke-width="0.576667" stroke-linecap="round" stroke-linejoin="round"/>
<path d="M124.573 59.9668V74.0897" stroke="#436FFF" stroke-width="0.404167" stroke-linecap="round" stroke-linejoin="round"/>
<path d="M124.573 77.4846C124.803 77.4846 125.031 77.4393 125.243 77.3512C125.456 77.2631 125.649 77.134 125.811 76.9713C125.974 76.8086 126.103 76.6154 126.191 76.4029C126.279 76.1903 126.325 75.9624 126.324 75.7323C126.324 75.5023 126.279 75.2744 126.191 75.0619C126.103 74.8493 125.974 74.6562 125.811 74.4935C125.648 74.3308 125.455 74.2018 125.243 74.1138C125.03 74.0257 124.802 73.9804 124.572 73.9805C124.108 73.9805 123.662 74.1652 123.333 74.4938C123.005 74.8224 122.82 75.2681 122.82 75.7328C122.82 76.1974 123.005 76.6431 123.334 76.9716C123.662 77.3002 124.108 77.4847 124.573 77.4846Z" fill="#436FFF"/>
<path d="M128.347 59.9668V74.0897" stroke="#436FFF" stroke-width="0.404167" stroke-linecap="round" stroke-linejoin="round"/>
<path d="M128.346 77.4846C128.576 77.4846 128.804 77.4393 129.017 77.3512C129.229 77.2631 129.422 77.134 129.585 76.9713C129.748 76.8086 129.877 76.6154 129.965 76.4029C130.053 76.1903 130.098 75.9624 130.098 75.7323C130.098 75.5023 130.053 75.2744 129.964 75.0619C129.876 74.8493 129.747 74.6562 129.585 74.4935C129.422 74.3308 129.229 74.2018 129.016 74.1138C128.804 74.0257 128.576 73.9804 128.346 73.9805C127.881 73.9805 127.435 74.1652 127.107 74.4938C126.778 74.8224 126.594 75.2681 126.594 75.7328C126.594 76.1974 126.778 76.6431 127.107 76.9716C127.436 77.3002 127.881 77.4847 128.346 77.4846Z" fill="#436FFF"/>
<path d="M132.119 59.9668V74.0897" stroke="#436FFF" stroke-width="0.404167" stroke-linecap="round" stroke-linejoin="round"/>
<path d="M132.119 77.4846C132.35 77.4846 132.577 77.4393 132.79 77.3512C133.003 77.2631 133.196 77.134 133.358 76.9713C133.521 76.8086 133.65 76.6154 133.738 76.4029C133.826 76.1903 133.871 75.9624 133.871 75.7323C133.871 75.5023 133.826 75.2744 133.738 75.0619C133.65 74.8493 133.521 74.6562 133.358 74.4935C133.195 74.3308 133.002 74.2018 132.79 74.1138C132.577 74.0257 132.349 73.9804 132.119 73.9805C131.654 73.9805 131.209 74.1652 130.88 74.4938C130.552 74.8224 130.367 75.2681 130.367 75.7328C130.367 76.1974 130.552 76.6431 130.881 76.9716C131.209 77.3002 131.655 77.4847 132.119 77.4846Z" fill="#436FFF"/>
<path d="M135.892 59.9668V74.0897" stroke="#436FFF" stroke-width="0.404167" stroke-linecap="round" stroke-linejoin="round"/>
<path d="M135.892 77.4846C136.356 77.4846 136.802 77.3 137.131 76.9715C137.459 76.6429 137.644 76.1972 137.644 75.7326C137.644 75.2679 137.459 74.8222 137.131 74.4936C136.802 74.1651 136.356 73.9805 135.892 73.9805C135.427 73.9805 134.981 74.1651 134.653 74.4936C134.324 74.8222 134.14 75.2679 134.14 75.7326C134.14 76.1972 134.324 76.6429 134.653 76.9715C134.981 77.3 135.427 77.4846 135.892 77.4846Z" fill="#436FFF"/>
</svg>
