<svg width="284" height="13" viewBox="0 0 284 13" fill="none" xmlns="http://www.w3.org/2000/svg">
<path d="M0 1C0 0.447715 0.447715 0 1 0H60.1548C60.3743 0 60.5876 0.0721777 60.762 0.205406L67.9601 5.70541C68.4839 6.10564 68.4839 6.89435 67.9601 7.29459L60.762 12.7946C60.5876 12.9278 60.3743 13 60.1548 13H1C0.447716 13 0 12.5523 0 12V1Z" fill="#00C16A"/>
<path d="M4.376 9.096C3.96533 9.096 3.608 9.02133 3.304 8.872C3 8.72267 2.76533 8.51467 2.6 8.248C2.43467 7.98133 2.352 7.672 2.352 7.32H3.056C3.056 7.53867 3.10667 7.74133 3.208 7.928C3.30933 8.10933 3.456 8.256 3.648 8.368C3.84533 8.47467 4.088 8.528 4.376 8.528C4.75467 8.528 5.048 8.43733 5.256 8.256C5.464 8.07467 5.568 7.848 5.568 7.576C5.568 7.352 5.52 7.17333 5.424 7.04C5.328 6.90133 5.19733 6.78933 5.032 6.704C4.872 6.61867 4.68533 6.544 4.472 6.48C4.264 6.416 4.04533 6.344 3.816 6.264C3.384 6.11467 3.064 5.93067 2.856 5.712C2.648 5.488 2.544 5.19733 2.544 4.84C2.53867 4.54133 2.608 4.27733 2.752 4.048C2.896 3.81333 3.09867 3.632 3.36 3.504C3.62667 3.37067 3.94133 3.304 4.304 3.304C4.66133 3.304 4.97067 3.37067 5.232 3.504C5.49867 3.63733 5.704 3.82133 5.848 4.056C5.99733 4.29067 6.07467 4.55733 6.08 4.856H5.376C5.376 4.70133 5.336 4.54933 5.256 4.4C5.176 4.24533 5.05333 4.12 4.888 4.024C4.728 3.928 4.52533 3.88 4.28 3.88C3.976 3.87467 3.72533 3.952 3.528 4.112C3.336 4.272 3.24 4.49333 3.24 4.776C3.24 5.016 3.30667 5.2 3.44 5.328C3.57867 5.456 3.77067 5.56267 4.016 5.648C4.26133 5.728 4.544 5.82133 4.864 5.928C5.13067 6.024 5.37067 6.136 5.584 6.264C5.79733 6.392 5.96267 6.55733 6.08 6.76C6.20267 6.96267 6.264 7.22133 6.264 7.536C6.264 7.80267 6.19467 8.056 6.056 8.296C5.91733 8.53067 5.70667 8.72267 5.424 8.872C5.14667 9.02133 4.79733 9.096 4.376 9.096ZM8.625 9.096C8.15567 9.096 7.78233 8.95467 7.505 8.672C7.22767 8.384 7.089 7.944 7.089 7.352V5.032H7.761V7.28C7.761 8.10667 8.09967 8.52 8.777 8.52C9.12367 8.52 9.409 8.39733 9.633 8.152C9.86233 7.90133 9.977 7.54667 9.977 7.088V5.032H10.649V9H10.041L9.993 8.288C9.87033 8.53867 9.68633 8.736 9.441 8.88C9.201 9.024 8.929 9.096 8.625 9.096ZM13.5791 9.096C13.2005 9.096 12.8591 9.01067 12.5551 8.84C12.2565 8.664 12.0191 8.42133 11.8431 8.112C11.6725 7.79733 11.5871 7.432 11.5871 7.016C11.5871 6.6 11.6725 6.23733 11.8431 5.928C12.0191 5.61333 12.2565 5.37067 12.5551 5.2C12.8591 5.024 13.2005 4.936 13.5791 4.936C14.0485 4.936 14.4431 5.05867 14.7631 5.304C15.0885 5.54933 15.2938 5.87733 15.3791 6.288H14.6911C14.6378 6.04267 14.5071 5.85333 14.2991 5.72C14.0911 5.58133 13.8485 5.512 13.5711 5.512C13.3471 5.512 13.1365 5.568 12.9391 5.68C12.7418 5.792 12.5818 5.96 12.4591 6.184C12.3365 6.408 12.2751 6.68533 12.2751 7.016C12.2751 7.34667 12.3365 7.624 12.4591 7.848C12.5818 8.072 12.7418 8.24267 12.9391 8.36C13.1365 8.472 13.3471 8.528 13.5711 8.528C13.8485 8.528 14.0911 8.46133 14.2991 8.328C14.5071 8.18933 14.6378 7.99467 14.6911 7.744H15.3791C15.2991 8.144 15.0965 8.46933 14.7711 8.72C14.4458 8.97067 14.0485 9.096 13.5791 9.096ZM18.1416 9.096C17.763 9.096 17.4216 9.01067 17.1176 8.84C16.819 8.664 16.5816 8.42133 16.4056 8.112C16.235 7.79733 16.1496 7.432 16.1496 7.016C16.1496 6.6 16.235 6.23733 16.4056 5.928C16.5816 5.61333 16.819 5.37067 17.1176 5.2C17.4216 5.024 17.763 4.936 18.1416 4.936C18.611 4.936 19.0056 5.05867 19.3256 5.304C19.651 5.54933 19.8563 5.87733 19.9416 6.288H19.2536C19.2003 6.04267 19.0696 5.85333 18.8616 5.72C18.6536 5.58133 18.411 5.512 18.1336 5.512C17.9096 5.512 17.699 5.568 17.5016 5.68C17.3043 5.792 17.1443 5.96 17.0216 6.184C16.899 6.408 16.8376 6.68533 16.8376 7.016C16.8376 7.34667 16.899 7.624 17.0216 7.848C17.1443 8.072 17.3043 8.24267 17.5016 8.36C17.699 8.472 17.9096 8.528 18.1336 8.528C18.411 8.528 18.6536 8.46133 18.8616 8.328C19.0696 8.18933 19.2003 7.99467 19.2536 7.744H19.9416C19.8616 8.144 19.659 8.46933 19.3336 8.72C19.0083 8.97067 18.611 9.096 18.1416 9.096ZM22.6641 9.096C22.2855 9.096 21.9495 9.01067 21.6561 8.84C21.3628 8.664 21.1308 8.42133 20.9601 8.112C20.7948 7.80267 20.7121 7.43733 20.7121 7.016C20.7121 6.6 20.7948 6.23733 20.9601 5.928C21.1255 5.61333 21.3548 5.37067 21.6481 5.2C21.9468 5.024 22.2908 4.936 22.6801 4.936C23.0641 4.936 23.3948 5.024 23.6721 5.2C23.9548 5.37067 24.1708 5.59733 24.3201 5.88C24.4695 6.16267 24.5441 6.46667 24.5441 6.792C24.5441 6.85067 24.5415 6.90933 24.5361 6.968C24.5361 7.02667 24.5361 7.09333 24.5361 7.168H21.3761C21.3921 7.472 21.4615 7.72533 21.5841 7.928C21.7121 8.12533 21.8695 8.27467 22.0561 8.376C22.2481 8.47733 22.4508 8.528 22.6641 8.528C22.9415 8.528 23.1735 8.464 23.3601 8.336C23.5468 8.208 23.6828 8.03467 23.7681 7.816H24.4321C24.3255 8.184 24.1201 8.49067 23.8161 8.736C23.5175 8.976 23.1335 9.096 22.6641 9.096ZM22.6641 5.504C22.3441 5.504 22.0588 5.60267 21.8081 5.8C21.5628 5.992 21.4215 6.27467 21.3841 6.648H23.8801C23.8641 6.29067 23.7415 6.01067 23.5121 5.808C23.2828 5.60533 23.0001 5.504 22.6641 5.504ZM26.9548 9.096C26.4801 9.096 26.0855 8.976 25.7708 8.736C25.4561 8.496 25.2721 8.17067 25.2188 7.76H25.9068C25.9495 7.968 26.0588 8.14933 26.2348 8.304C26.4161 8.45333 26.6588 8.528 26.9628 8.528C27.2455 8.528 27.4535 8.46933 27.5868 8.352C27.7201 8.22933 27.7868 8.08533 27.7868 7.92C27.7868 7.68 27.6988 7.52 27.5228 7.44C27.3521 7.36 27.1095 7.288 26.7948 7.224C26.5815 7.18133 26.3681 7.12 26.1548 7.04C25.9415 6.96 25.7628 6.848 25.6188 6.704C25.4748 6.55467 25.4028 6.36 25.4028 6.12C25.4028 5.77333 25.5308 5.49067 25.7868 5.272C26.0481 5.048 26.4001 4.936 26.8428 4.936C27.2641 4.936 27.6081 5.04267 27.8748 5.256C28.1468 5.464 28.3041 5.76267 28.3468 6.152H27.6828C27.6561 5.94933 27.5681 5.792 27.4188 5.68C27.2748 5.56267 27.0801 5.504 26.8348 5.504C26.5948 5.504 26.4081 5.55467 26.2748 5.656C26.1468 5.75733 26.0828 5.89067 26.0828 6.056C26.0828 6.216 26.1655 6.34133 26.3308 6.432C26.5015 6.52267 26.7308 6.6 27.0188 6.664C27.2641 6.71733 27.4961 6.784 27.7148 6.864C27.9388 6.93867 28.1201 7.05333 28.2588 7.208C28.4028 7.35733 28.4748 7.576 28.4748 7.864C28.4801 8.22133 28.3441 8.51733 28.0668 8.752C27.7948 8.98133 27.4241 9.096 26.9548 9.096ZM30.9548 9.096C30.4801 9.096 30.0855 8.976 29.7708 8.736C29.4561 8.496 29.2721 8.17067 29.2188 7.76H29.9068C29.9495 7.968 30.0588 8.14933 30.2348 8.304C30.4161 8.45333 30.6588 8.528 30.9628 8.528C31.2455 8.528 31.4535 8.46933 31.5868 8.352C31.7201 8.22933 31.7868 8.08533 31.7868 7.92C31.7868 7.68 31.6988 7.52 31.5228 7.44C31.3521 7.36 31.1095 7.288 30.7948 7.224C30.5815 7.18133 30.3681 7.12 30.1548 7.04C29.9415 6.96 29.7628 6.848 29.6188 6.704C29.4748 6.55467 29.4028 6.36 29.4028 6.12C29.4028 5.77333 29.5308 5.49067 29.7868 5.272C30.0481 5.048 30.4001 4.936 30.8428 4.936C31.2641 4.936 31.6081 5.04267 31.8748 5.256C32.1468 5.464 32.3041 5.76267 32.3468 6.152H31.6828C31.6561 5.94933 31.5681 5.792 31.4188 5.68C31.2748 5.56267 31.0801 5.504 30.8348 5.504C30.5948 5.504 30.4081 5.55467 30.2748 5.656C30.1468 5.75733 30.0828 5.89067 30.0828 6.056C30.0828 6.216 30.1655 6.34133 30.3308 6.432C30.5015 6.52267 30.7308 6.6 31.0188 6.664C31.2641 6.71733 31.4961 6.784 31.7148 6.864C31.9388 6.93867 32.1201 7.05333 32.2588 7.208C32.4028 7.35733 32.4748 7.576 32.4748 7.864C32.4801 8.22133 32.3441 8.51733 32.0668 8.752C31.7948 8.98133 31.4241 9.096 30.9548 9.096ZM35.552 9V5.032H36.16L36.208 5.608C36.336 5.39467 36.5067 5.22933 36.72 5.112C36.9333 4.99467 37.1733 4.936 37.44 4.936C37.7547 4.936 38.024 5 38.248 5.128C38.4773 5.256 38.6533 5.45067 38.776 5.712C38.9147 5.472 39.104 5.28267 39.344 5.144C39.5893 5.00533 39.8533 4.936 40.136 4.936C40.6107 4.936 40.9893 5.08 41.272 5.368C41.5547 5.65067 41.696 6.088 41.696 6.68V9H41.032V6.752C41.032 6.34133 40.9493 6.032 40.784 5.824C40.6187 5.616 40.3813 5.512 40.072 5.512C39.752 5.512 39.4853 5.63733 39.272 5.888C39.064 6.13333 38.96 6.48533 38.96 6.944V9H38.288V6.752C38.288 6.34133 38.2053 6.032 38.04 5.824C37.8747 5.616 37.6373 5.512 37.328 5.512C37.0133 5.512 36.7493 5.63733 36.536 5.888C36.328 6.13333 36.224 6.48533 36.224 6.944V9H35.552ZM44.4923 9.096C44.1136 9.096 43.7776 9.01067 43.4843 8.84C43.1909 8.664 42.9589 8.42133 42.7883 8.112C42.6229 7.80267 42.5403 7.43733 42.5403 7.016C42.5403 6.6 42.6229 6.23733 42.7883 5.928C42.9536 5.61333 43.1829 5.37067 43.4763 5.2C43.7749 5.024 44.1189 4.936 44.5082 4.936C44.8923 4.936 45.2229 5.024 45.5003 5.2C45.7829 5.37067 45.9989 5.59733 46.1483 5.88C46.2976 6.16267 46.3723 6.46667 46.3723 6.792C46.3723 6.85067 46.3696 6.90933 46.3643 6.968C46.3643 7.02667 46.3643 7.09333 46.3643 7.168H43.2043C43.2203 7.472 43.2896 7.72533 43.4123 7.928C43.5403 8.12533 43.6976 8.27467 43.8843 8.376C44.0763 8.47733 44.2789 8.528 44.4923 8.528C44.7696 8.528 45.0016 8.464 45.1883 8.336C45.3749 8.208 45.5109 8.03467 45.5963 7.816H46.2603C46.1536 8.184 45.9483 8.49067 45.6443 8.736C45.3456 8.976 44.9616 9.096 44.4923 9.096ZM44.4923 5.504C44.1723 5.504 43.8869 5.60267 43.6363 5.8C43.3909 5.992 43.2496 6.27467 43.2122 6.648H45.7083C45.6923 6.29067 45.5696 6.01067 45.3403 5.808C45.1109 5.60533 44.8283 5.504 44.4923 5.504ZM48.6981 9C48.3355 9 48.0501 8.912 47.8421 8.736C47.6341 8.56 47.5301 8.24267 47.5301 7.784V5.6H46.8421V5.032H47.5301L47.6181 4.08H48.2021V5.032H49.3701V5.6H48.2021V7.784C48.2021 8.03467 48.2528 8.20533 48.3541 8.296C48.4555 8.38133 48.6341 8.424 48.8901 8.424H49.3061V9H48.6981ZM50.2239 9V5.032H50.8319L50.8879 5.792C51.0105 5.53067 51.1972 5.32267 51.4479 5.168C51.6985 5.01333 52.0079 4.936 52.3759 4.936V5.64H52.1919C51.9572 5.64 51.7412 5.68267 51.5439 5.768C51.3465 5.848 51.1892 5.98667 51.0719 6.184C50.9545 6.38133 50.8959 6.65333 50.8959 7V9H50.2239ZM53.5381 4.152C53.4048 4.152 53.2928 4.10933 53.2021 4.024C53.1168 3.93333 53.0741 3.82133 53.0741 3.688C53.0741 3.56 53.1168 3.45333 53.2021 3.368C53.2928 3.28267 53.4048 3.24 53.5381 3.24C53.6661 3.24 53.7755 3.28267 53.8661 3.368C53.9568 3.45333 54.0021 3.56 54.0021 3.688C54.0021 3.82133 53.9568 3.93333 53.8661 4.024C53.7755 4.10933 53.6661 4.152 53.5381 4.152ZM53.2021 9V5.032H53.8741V9H53.2021ZM56.8682 9.096C56.4895 9.096 56.1482 9.01067 55.8442 8.84C55.5455 8.664 55.3082 8.42133 55.1322 8.112C54.9615 7.79733 54.8762 7.432 54.8762 7.016C54.8762 6.6 54.9615 6.23733 55.1322 5.928C55.3082 5.61333 55.5455 5.37067 55.8442 5.2C56.1482 5.024 56.4895 4.936 56.8682 4.936C57.3375 4.936 57.7322 5.05867 58.0522 5.304C58.3775 5.54933 58.5829 5.87733 58.6682 6.288H57.9802C57.9269 6.04267 57.7962 5.85333 57.5882 5.72C57.3802 5.58133 57.1375 5.512 56.8602 5.512C56.6362 5.512 56.4255 5.568 56.2282 5.68C56.0309 5.792 55.8709 5.96 55.7482 6.184C55.6255 6.408 55.5642 6.68533 55.5642 7.016C55.5642 7.34667 55.6255 7.624 55.7482 7.848C55.8709 8.072 56.0309 8.24267 56.2282 8.36C56.4255 8.472 56.6362 8.528 56.8602 8.528C57.1375 8.528 57.3802 8.46133 57.5882 8.328C57.7962 8.18933 57.9269 7.99467 57.9802 7.744H58.6682C58.5882 8.144 58.3855 8.46933 58.0602 8.72C57.7349 8.97067 57.3375 9.096 56.8682 9.096ZM61.1267 9.096C60.652 9.096 60.2574 8.976 59.9427 8.736C59.628 8.496 59.444 8.17067 59.3907 7.76H60.0787C60.1214 7.968 60.2307 8.14933 60.4067 8.304C60.588 8.45333 60.8307 8.528 61.1347 8.528C61.4174 8.528 61.6254 8.46933 61.7587 8.352C61.892 8.22933 61.9587 8.08533 61.9587 7.92C61.9587 7.68 61.8707 7.52 61.6947 7.44C61.524 7.36 61.2814 7.288 60.9667 7.224C60.7534 7.18133 60.54 7.12 60.3267 7.04C60.1134 6.96 59.9347 6.848 59.7907 6.704C59.6467 6.55467 59.5747 6.36 59.5747 6.12C59.5747 5.77333 59.7027 5.49067 59.9587 5.272C60.22 5.048 60.572 4.936 61.0147 4.936C61.436 4.936 61.78 5.04267 62.0467 5.256C62.3187 5.464 62.476 5.76267 62.5187 6.152H61.8547C61.828 5.94933 61.74 5.792 61.5907 5.68C61.4467 5.56267 61.252 5.504 61.0067 5.504C60.7667 5.504 60.58 5.55467 60.4467 5.656C60.3187 5.75733 60.2547 5.89067 60.2547 6.056C60.2547 6.216 60.3374 6.34133 60.5027 6.432C60.6734 6.52267 60.9027 6.6 61.1907 6.664C61.436 6.71733 61.668 6.784 61.8867 6.864C62.1107 6.93867 62.292 7.05333 62.4307 7.208C62.5747 7.35733 62.6467 7.576 62.6467 7.864C62.652 8.22133 62.516 8.51733 62.2387 8.752C61.9667 8.98133 61.596 9.096 61.1267 9.096Z" fill="white"/>
<path d="M68 6.5L284 6.50038" stroke="#00C16A"/>
</svg>
