<svg width="93" height="51" viewBox="0 0 93 51" fill="none" xmlns="http://www.w3.org/2000/svg">
<path fill-rule="evenodd" clip-rule="evenodd" d="M44.0376 14.2277C58.3046 19.3441 66.8685 20.2521 70.6343 27.0644C74.4004 33.8768 70.8402 42.3554 57.3572 44.444C43.8739 46.5328 44.1822 49.3827 23.8326 49.9337C3.48292 50.4848 -4.42205 26.3853 9.26064 18.268C22.9431 10.1507 29.7706 9.11122 44.0376 14.2277Z" fill="#F2F5FF"/>
<mask id="mask0_412_40578" style="mask-type:alpha" maskUnits="userSpaceOnUse" x="0" y="8" width="93" height="40">
<path d="M49.2442 12.18C58.7243 15.3532 80.0388 8.22133 85.2195 10.5098C86.986 11.2901 93.6603 16.8328 91.9218 22.0353C89.5054 29.2655 78.6455 40.1854 63.5981 42.3611C57.8898 43.1866 52.4569 44.6811 46.8092 45.6725C37.7798 47.2579 28.155 48.3043 15.9787 45.3193C-3.64037 40.5095 -4.83714 24.8437 10.4328 16.3885C25.7026 7.93353 33.3221 6.85059 49.2442 12.18Z" fill="white"/>
</mask>
<g mask="url(#mask0_412_40578)">
<mask id="mask1_412_40578" style="mask-type:alpha" maskUnits="userSpaceOnUse" x="0" y="9" width="92" height="41">
<path d="M91.6279 19.0256L39.5275 49.794L23.4604 40.3056L23.5005 40.2818L0.842041 26.9009L16.9089 17.4125L39.5674 30.7933L75.561 9.53711L91.6279 19.0256Z" fill="white"/>
</mask>
<g mask="url(#mask1_412_40578)">
<path d="M91.6281 19.0295L39.5278 49.7979L23.4606 40.3095L23.5007 40.2857L0.842285 26.9048L16.9092 17.4164L39.5676 30.7972L75.5612 9.54102L91.6281 19.0295Z" fill="#436FFF"/>
<path d="M36.2949 -1.27734C36.9848 8.43036 42.5122 14.4127 52.8772 16.669C63.2423 18.9254 77.6632 16.2887 96.1402 8.75902" stroke="white" stroke-width="0.481725"/>
<path d="M42.4993 -1.14844C44.6209 10.2917 37.9968 16.043 22.6268 16.1057C-0.428245 16.1995 16.8144 6.2178 24.4249 10.4955C32.0355 14.7733 30.869 23.6719 18.2536 29.5274C9.84308 33.431 0.414811 35.275 -10.0317 35.0596M88.0894 31.0975C54.1446 29.0977 26.7352 35.6956 5.86094 50.8913" stroke="white" stroke-width="0.481725"/>
<path d="M-1.19116 29.1055C20.9163 33.0985 34.8774 40.5995 40.6923 51.6085" stroke="white" stroke-width="0.481725"/>
<path d="M88.8368 18.4492C73.2542 27.0154 62.5905 29.3795 56.8458 25.5414C48.2288 19.7846 65.5772 15.7489 67.8033 20.7812C70.0296 25.8134 56.3197 29.4878 38.2741 30.8758C26.2435 31.801 11.7867 36.636 -5.09668 45.3805M53.5609 51.8712C51.8066 44.0671 54.9469 39.9651 62.9814 39.5654C71.0158 39.1656 79.7891 41.4298 89.3008 46.3582" stroke="white" stroke-width="0.481725"/>
<path d="M88.4965 24.2109C73.7575 32.1235 67.0526 41.9466 68.382 53.6805" stroke="white" stroke-width="0.481725"/>
<path d="M-0.540283 18.0977C34.416 23.0243 61.3687 34.9704 80.3174 53.9357" stroke="white" stroke-width="0.481725"/>
<path d="M13.5815 -1.74805C2.74441 -0.669693 -1.3944 1.95972 1.16509 6.14049C5.00484 12.4116 19.8103 24.4259 -1.0086 26.0273M-1.82959 39.9097C6.11337 47.4583 14.8831 49.4853 24.4796 45.9909C38.8741 40.7491 43.7119 39.6992 49.5072 40.9683C53.3708 41.8146 56.7122 45.4901 59.5314 51.9948" stroke="white" stroke-width="0.481725"/>
</g>
</g>
<mask id="mask2_412_40578" style="mask-type:alpha" maskUnits="userSpaceOnUse" x="6" y="4" width="79" height="51">
<path d="M84.5183 28.0131L35.7024 54.6921L24.1465 44.7452L24.1875 44.7228L6.228 28.791L18.488 16.4729L41.6766 4.41141L75.9378 16.5683L84.5183 28.0131Z" fill="white"/>
</mask>
<g mask="url(#mask2_412_40578)">
<path fill-rule="evenodd" clip-rule="evenodd" d="M73.7431 33.8592L64.1274 33.6416L58.5997 53.1265L64.6812 53.2417L69.0251 37.1627L71.7197 52.6911L77.9266 52.5924L73.7431 33.8592Z" fill="white" stroke="#01133B" stroke-width="0.481725" stroke-linecap="round" stroke-linejoin="round"/>
<path d="M66.4685 33.8285C66.4196 34.3434 66.1274 34.8211 65.6382 35.1862C65.1491 35.5513 64.4907 35.7831 63.7672 35.8448L63.5574 35.8628" stroke="#01133B" stroke-width="0.481725" stroke-linecap="round" stroke-linejoin="round"/>
<path d="M66.9965 33.8208C66.9396 34.4269 66.5967 34.9894 66.0219 35.4199C65.4472 35.8504 64.6733 36.1243 63.8221 36.1985L63.6152 36.2166" stroke="#01133B" stroke-width="0.190135" stroke-linecap="round" stroke-linejoin="round" stroke-dasharray="0.57 0.57"/>
<path d="M71.5522 33.9629C71.6381 34.486 71.967 34.9851 72.4871 35.3815C73.0071 35.7779 73.6887 36.0489 74.4243 36.1519L74.6376 36.1817" stroke="#01133B" stroke-width="0.481725" stroke-linecap="round" stroke-linejoin="round"/>
<path d="M71.0186 33.9199C71.119 34.5357 71.5052 35.1233 72.1163 35.5904C72.7274 36.0576 73.5287 36.3777 74.3942 36.5004L74.6048 36.5302" stroke="#01133B" stroke-width="0.190135" stroke-linecap="round" stroke-linejoin="round" stroke-dasharray="0.57 0.57"/>
<path d="M68.9672 33.8934L69.028 37.159M68.0678 33.8187L68.0675 36.3485C68.0675 36.5221 68.1487 36.6945 68.2986 36.8391C68.4485 36.9836 68.6587 37.0923 68.8967 37.1482" stroke="#01133B" stroke-width="0.481725" stroke-linecap="round" stroke-linejoin="round"/>
<path fill-rule="evenodd" clip-rule="evenodd" d="M73.3556 16.7776C72.6365 16.2197 71.3413 16.2101 70.6197 16.8317C70.2728 17.1303 70.1446 17.4715 70.2354 17.8549C69.7759 17.6821 69.2344 17.5774 68.5829 17.5408C66.769 17.4388 65.0603 18.2556 65.0283 19.635C64.9963 21.0143 62.3857 20.7598 61.3389 22.0065C60.8586 22.5791 61.0904 23.2473 61.2328 23.8845L61.2511 23.9693C61.4017 24.6882 61.3913 25.3603 60.0525 25.8012C58.3372 26.366 57.3642 27.1864 57.133 28.2622L80.3606 28.6594C80.3786 27.4606 79.604 26.6075 78.0364 26.1003C76.7933 25.6979 76.7058 24.9602 76.6127 24.1489L76.6002 24.0427C76.5189 23.35 76.3972 22.6125 75.5276 21.9901C73.5872 20.6018 72.7872 20.5847 72.0729 19.4285C71.9252 19.1893 71.7667 18.9728 71.5925 18.7786L71.599 18.7791C72.4891 18.8431 73.2236 18.4817 73.4287 18.3325C73.9124 17.9808 74.0747 17.3356 73.3556 16.7776Z" fill="#01133B"/>
<path fill-rule="evenodd" clip-rule="evenodd" d="M75.6547 26.2799L82.8145 32.0325L82.2495 42.8876L77.4393 42.5475L76.6696 33.5996L74.1341 31.0248L74.1646 33.9018L64.0487 33.5824L63.4831 30.0782L59.6881 32.6586C58.2633 33.6274 55.9191 33.546 54.4523 32.4766C54.278 32.3495 54.1207 32.2113 53.9829 32.0641L44.3878 21.8208L51.6863 20.4717L58.3469 27.761L62.0679 25.4803C62.5956 25.1568 63.271 24.9718 63.9896 24.9539L68.5781 24.8396L73.6082 25.4614C74.3919 25.5585 75.1182 25.8488 75.6547 26.2799Z" fill="white" stroke="#01133B" stroke-width="0.481725" stroke-linecap="round" stroke-linejoin="round"/>
<path fill-rule="evenodd" clip-rule="evenodd" d="M47.9465 25.6482L43.9506 20.9479C43.8233 20.7983 43.7825 20.6228 43.837 20.4601C43.8915 20.2974 44.037 20.1608 44.2413 20.0804C44.4457 19.9999 44.6922 19.9822 44.9267 20.0311C45.1612 20.08 45.3644 20.1915 45.4916 20.3412L47.4897 22.6915" fill="white"/>
<path d="M47.9465 25.6482L43.9506 20.9479C43.8233 20.7983 43.7825 20.6228 43.837 20.4601C43.8915 20.2974 44.037 20.1608 44.2413 20.0804C44.4457 19.9999 44.6922 19.9822 44.9267 20.0311C45.1612 20.08 45.3644 20.1915 45.4916 20.3412L47.4897 22.6915" stroke="#01133B" stroke-width="0.481725" stroke-linecap="round" stroke-linejoin="round"/>
<path fill-rule="evenodd" clip-rule="evenodd" d="M47.4893 22.6921L45.4915 20.3421C45.3643 20.1925 45.3235 20.0171 45.3781 19.8544C45.4326 19.6918 45.5781 19.5552 45.7825 19.4748C45.9868 19.3944 46.2333 19.3767 46.4678 19.4256C46.7022 19.4746 46.9053 19.5861 47.0325 19.7357L49.0304 22.0859" fill="white"/>
<path d="M47.4893 22.6921L45.4915 20.3421C45.3643 20.1925 45.3235 20.0171 45.3781 19.8544C45.4326 19.6918 45.5781 19.5552 45.7825 19.4748C45.9868 19.3944 46.2333 19.3767 46.4678 19.4256C46.7022 19.4746 46.9053 19.5861 47.0325 19.7357L49.0304 22.0859" stroke="#01133B" stroke-width="0.481725" stroke-linecap="round" stroke-linejoin="round"/>
<path fill-rule="evenodd" clip-rule="evenodd" d="M49.0299 22.085L47.0321 19.7349C46.9049 19.5852 46.864 19.4098 46.9186 19.2471C46.9731 19.0844 47.1186 18.9479 47.3229 18.8674C47.5273 18.787 47.7738 18.7693 48.0083 18.8182C48.2427 18.8671 48.4459 18.9787 48.5731 19.1283L50.571 21.4784" fill="white"/>
<path d="M49.0299 22.085L47.0321 19.7349C46.9049 19.5852 46.864 19.4098 46.9186 19.2471C46.9731 19.0844 47.1186 18.9479 47.3229 18.8674C47.5273 18.787 47.7738 18.7693 48.0083 18.8182C48.2427 18.8671 48.4459 18.9787 48.5731 19.1283L50.571 21.4784" stroke="#01133B" stroke-width="0.481725" stroke-linecap="round" stroke-linejoin="round"/>
<path fill-rule="evenodd" clip-rule="evenodd" d="M50.5703 21.4848L48.5723 19.1345C48.5093 19.0604 48.4669 18.9792 48.4475 18.8955C48.428 18.8118 48.4319 18.7273 48.459 18.6468C48.486 18.5662 48.5357 18.4912 48.6051 18.4261C48.6745 18.361 48.7623 18.307 48.8635 18.2672C49.0685 18.1865 49.3157 18.1683 49.5512 18.2165C49.7868 18.2648 49.9917 18.3756 50.1214 18.5248L54.4461 23.4996" fill="white"/>
<path d="M50.5703 21.4848L48.5723 19.1345C48.5093 19.0604 48.4669 18.9792 48.4475 18.8955C48.428 18.8118 48.4319 18.7273 48.459 18.6468C48.486 18.5662 48.5357 18.4912 48.6051 18.4261C48.6745 18.361 48.7623 18.307 48.8635 18.2672C49.0685 18.1865 49.3157 18.1683 49.5512 18.2165C49.7868 18.2648 49.9917 18.3756 50.1214 18.5248L54.4461 23.4996" stroke="#01133B" stroke-width="0.481725" stroke-linecap="round" stroke-linejoin="round"/>
<path fill-rule="evenodd" clip-rule="evenodd" d="M52.1249 21.4203L52.0804 20.4677C52.0725 20.2982 52.1603 20.1377 52.3246 20.0214C52.4889 19.9052 52.7161 19.8428 52.9563 19.848C53.1982 19.8532 53.4336 19.925 53.612 20.0482C53.7905 20.1714 53.8976 20.336 53.9106 20.5068L54.1199 23.2784" fill="white"/>
<path d="M52.1249 21.4203L52.0804 20.4677C52.0725 20.2982 52.1603 20.1377 52.3246 20.0214C52.4889 19.9052 52.7161 19.8428 52.9563 19.848C53.1982 19.8532 53.4336 19.925 53.612 20.0482C53.7905 20.1714 53.8976 20.336 53.9106 20.5068L54.1199 23.2784" stroke="#01133B" stroke-width="0.481725" stroke-linecap="round" stroke-linejoin="round"/>
<path fill-rule="evenodd" clip-rule="evenodd" d="M70.2058 25.1429L70.1105 23.1263L66.9435 23.058L67.0349 25.0218" fill="white"/>
<path d="M70.2058 25.1429L70.1105 23.1263L66.9435 23.058L67.0349 25.0218" stroke="#01133B" stroke-width="0.481725" stroke-linecap="round" stroke-linejoin="round"/>
<mask id="mask3_412_40578" style="mask-type:alpha" maskUnits="userSpaceOnUse" x="66" y="23" width="5" height="3">
<path d="M70.1103 23.1265L66.9435 23.058L67.0037 24.3348C67.0176 24.6312 67.1977 24.919 67.5045 25.135C67.8112 25.351 68.2195 25.4774 68.6395 25.4865C69.0594 25.4955 69.4567 25.3865 69.7439 25.1833C70.0311 24.9801 70.1846 24.6995 70.1707 24.4031L70.1103 23.1263L70.1103 23.1265Z" fill="white"/>
</mask>
<g mask="url(#mask3_412_40578)">
<path d="M67.2328 24.5192C64.9251 24.4694 62.9963 23.2061 62.9252 21.6975C62.8541 20.1889 64.6673 19.006 66.975 19.0557C69.283 19.1055 71.2116 20.3687 71.2827 21.8775C71.3541 23.3861 69.5408 24.5688 67.2328 24.5192Z" fill="#01133B"/>
</g>
<path d="M65.1046 19.8454C65.0401 18.4747 66.5613 17.3977 68.5025 17.4395C70.4438 17.4813 72.07 18.6263 72.1346 19.9968L72.1879 21.1287C72.2527 22.4992 70.7314 23.5764 68.7901 23.5346C66.849 23.4928 65.2228 22.3478 65.158 20.9773L65.1046 19.8454Z" fill="#01133B"/>
<path fill-rule="evenodd" clip-rule="evenodd" d="M65.3862 20.1614L65.4581 21.6818C65.5126 22.8365 66.8825 23.8011 68.5182 23.8363C70.1535 23.8715 71.4352 22.964 71.3806 21.8095L71.309 20.2889C71.2545 19.1342 69.8845 18.1696 68.2489 18.1344C66.6135 18.0993 65.3319 19.0069 65.3862 20.1614Z" fill="white" stroke="#01133B" stroke-width="0.481725" stroke-linecap="round" stroke-linejoin="round"/>
<mask id="mask4_412_40578" style="mask-type:alpha" maskUnits="userSpaceOnUse" x="65" y="18" width="7" height="6">
<path d="M65.3867 20.1516L65.4498 21.4821C65.5043 22.637 66.8743 23.6016 68.5096 23.6371C70.145 23.6723 71.4264 22.7648 71.3719 21.6099L71.3088 20.2795C71.2543 19.1247 69.8844 18.16 68.249 18.1246C66.6136 18.0894 65.3322 18.9967 65.3867 20.1516Z" fill="white"/>
</mask>
<g mask="url(#mask4_412_40578)">
<path fill-rule="evenodd" clip-rule="evenodd" d="M66.3496 17.0078L66.3259 17.0044C65.6491 16.9145 63.0976 17.3065 62.0429 18.5571C60.9858 19.8106 61.3746 21.4307 62.2895 21.4457C62.8292 21.4544 63.361 21.3975 63.8619 21.2776C65.2113 20.9559 66.1736 20.2282 66.5934 19.344C67.495 20.1146 69.0739 20.6708 70.5582 20.8824C71.3698 20.9979 71.8599 21.0749 72.3863 21.0868C73.4504 21.1106 72.03 18.3211 70.5673 16.8721C69.5467 15.8612 67.2701 16.3545 66.3496 17.0078Z" fill="#01133B"/>
</g>
<mask id="mask5_412_40578" style="mask-type:alpha" maskUnits="userSpaceOnUse" x="67" y="22" width="3" height="2">
<path d="M69.4357 22.4304L67.8412 22.6248C68.0546 22.9921 68.3865 23.1469 68.8363 23.0894C69.2863 23.0321 69.4861 22.8123 69.4357 22.4304Z" fill="white"/>
</mask>
<g mask="url(#mask5_412_40578)">
<path d="M69.4357 22.4304L67.8409 22.6248C68.0546 22.9921 68.3864 23.1469 68.8362 23.0894C69.2862 23.0321 69.4859 22.8123 69.4357 22.4304Z" fill="white" stroke="#01133B" stroke-width="0.364943" stroke-linecap="round" stroke-linejoin="round"/>
<path d="M68.8419 23.4317C68.4613 23.4235 68.1456 23.2611 68.1364 23.0692C68.1274 22.8771 68.4285 22.7282 68.8091 22.7363C69.1897 22.7447 69.5057 22.9069 69.5147 23.0988C69.5239 23.2909 69.2225 23.4399 68.8419 23.4317Z" fill="#01133B"/>
</g>
<path d="M67.906 21.3546L67.8093 21.8879L68.2284 21.9473" stroke="#01133B" stroke-width="0.481725" stroke-linecap="round" stroke-linejoin="round"/>
<path d="M69.6134 21.4158C69.2664 21.4083 68.9791 21.27 68.9714 21.1065C68.9635 20.9432 69.2387 20.8171 69.5855 20.8243C69.9325 20.8319 70.2201 20.9702 70.2277 21.1337C70.2354 21.2969 69.9604 21.4233 69.6134 21.4158Z" stroke="#01133B" stroke-width="0.292684" stroke-linecap="round" stroke-linejoin="round"/>
<path d="M69.6141 21.4133C69.4059 21.4088 69.2309 21.2728 69.2232 21.1094C69.2155 20.9461 69.378 20.8173 69.5861 20.822C69.7945 20.8264 69.9693 20.9624 69.977 21.1258C69.9849 21.2891 69.8222 21.4179 69.6141 21.4133Z" fill="#01133B"/>
<path d="M66.3834 21.3416C66.0364 21.3341 65.7488 21.1957 65.7411 21.0323C65.7335 20.869 66.0085 20.7427 66.3555 20.7501C66.7022 20.7577 66.9898 20.896 66.9975 21.0594C67.0052 21.2227 66.7302 21.3491 66.3834 21.3416Z" stroke="#01133B" stroke-width="0.292684" stroke-linecap="round" stroke-linejoin="round"/>
<path d="M66.3833 21.3391C66.1752 21.3346 66.0002 21.1986 65.9925 21.0353C65.9848 20.872 66.1473 20.7432 66.3554 20.7477C66.5635 20.7523 66.7386 20.8883 66.7462 21.0515C66.7539 21.215 66.5915 21.3436 66.3833 21.3391Z" fill="#01133B"/>
<path fill-rule="evenodd" clip-rule="evenodd" d="M71.1211 21.2367L71.5973 21.261L71.2848 22.491L70.9109 22.5131L71.1211 21.2367Z" fill="white"/>
<path fill-rule="evenodd" clip-rule="evenodd" d="M71.2556 21.179L71.6019 21.1704C71.7104 21.1677 71.8199 21.1827 71.9219 21.2142C72.024 21.2457 72.1159 21.2929 72.1906 21.3522C72.2653 21.4114 72.3207 21.4811 72.3527 21.556C72.3847 21.6308 72.3923 21.7087 72.375 21.7837C72.332 21.971 72.2089 22.1412 72.0217 22.2719C71.8345 22.4026 71.592 22.4878 71.3259 22.5162L71.1513 22.5348" fill="white"/>
<path d="M71.2556 21.179L71.6019 21.1704C71.7104 21.1677 71.8199 21.1827 71.9219 21.2142C72.024 21.2457 72.1159 21.2929 72.1906 21.3522C72.2653 21.4114 72.3207 21.4811 72.3527 21.556C72.3847 21.6308 72.3923 21.7087 72.375 21.7837C72.332 21.971 72.2089 22.1412 72.0217 22.2719C71.8345 22.4026 71.592 22.4878 71.3259 22.5162L71.1513 22.5348M71.6276 21.6203L71.595 22.0423M71.6071 21.8856L71.9002 21.7497" stroke="#01133B" stroke-width="0.481725" stroke-linecap="round" stroke-linejoin="round"/>
<path d="M71.464 22.2835L70.7058 23.9336L72.3795 23.9698L71.464 22.2835ZM65.8089 22.1624L65.0508 23.8124L66.7245 23.8486L65.8089 22.1623L65.8089 22.1624Z" stroke="white" stroke-width="0.32115" stroke-linejoin="round"/>
<path fill-rule="evenodd" clip-rule="evenodd" d="M71.4683 25.1445L71.6694 40.0718L75.0314 40.0649L76.7846 34.0928L81.874 30.9268L76.5239 26.3514C75.9559 25.8655 75.1567 25.5421 74.2941 25.4491L71.4683 25.1445Z" fill="#EDEEF2" stroke="#01133B" stroke-width="0.481725" stroke-linejoin="round"/>
<path fill-rule="evenodd" clip-rule="evenodd" d="M73.0299 25.4479L72.1095 27.8607L73.6889 28.949C73.9955 29.1603 74.2152 29.4256 74.3216 29.7132C74.428 30.0009 74.4168 30.2989 74.2892 30.5718L71.664 36.1851" fill="#EDEEF2"/>
<path d="M73.0299 25.4479L72.1095 27.8607L73.6889 28.949C73.9955 29.1603 74.2152 29.4256 74.3216 29.7132C74.428 30.0009 74.4168 30.2989 74.2892 30.5718L71.664 36.1851M74.8197 31.8488L75.0559 33.3408" stroke="#01133B" stroke-width="0.481725" stroke-linecap="round" stroke-linejoin="round"/>
<path fill-rule="evenodd" clip-rule="evenodd" d="M65.4433 24.908L64.1622 40.8643L59.1459 42.8253L60.9755 33.2433L59.7235 33.7749C57.7474 34.6141 55.0892 34.1902 53.632 32.8032L47.0877 26.5745L54.5774 22.4526L58.6193 27.2444L60.6629 25.8417C61.4282 25.3166 62.4472 25.0089 63.5434 24.972L65.4433 24.908Z" fill="#EDEEF2" stroke="#01133B" stroke-width="0.481725" stroke-linejoin="round"/>
<path fill-rule="evenodd" clip-rule="evenodd" d="M63.4117 24.9557L64.5962 27.5354L62.8146 28.266C62.4372 28.4209 62.1449 28.6579 61.9782 28.9444C61.8114 29.2308 61.7785 29.5524 61.8839 29.8648L64.4356 37.4278" fill="#EDEEF2"/>
<path d="M63.4117 24.9557L64.5962 27.5354L62.8146 28.266C62.4372 28.4209 62.1449 28.658 61.9782 28.9444C61.8114 29.2308 61.7785 29.5524 61.8839 29.8648L64.4355 37.4278" stroke="#01133B" stroke-width="0.481725" stroke-linecap="round" stroke-linejoin="round"/>
<path fill-rule="evenodd" clip-rule="evenodd" d="M46.414 26.6376L54.6107 22.1932L55.8455 23.3119L50.3734 30.6754L46.414 26.6376Z" fill="#EDEEF2" stroke="#01133B" stroke-width="0.481725" stroke-linejoin="round"/>
<path fill-rule="evenodd" clip-rule="evenodd" d="M51.216 30.5358L51.081 30.4231L50.7245 30.1263L55.5531 23.6874L55.6789 23.786L51.216 30.5358Z" fill="#01133B"/>
<path d="M61.2496 31.9436L60.9771 33.2412M65.3779 25.8272C65.9518 27.4034 66.9349 28.2351 68.3274 28.3223C69.7199 28.4093 70.7602 27.5847 71.4484 25.848" stroke="#01133B" stroke-width="0.481725" stroke-linecap="round" stroke-linejoin="round"/>
<path fill-rule="evenodd" clip-rule="evenodd" d="M27.4834 39.6884L13.401 36.8809L10.5301 44.2498L25.1803 47.5468L27.4834 39.6884Z" fill="white" stroke="#01133B" stroke-width="0.481725" stroke-linecap="round" stroke-linejoin="round"/>
<path d="M19.5378 38.3736L19.0274 40.32M24.0914 39.5601C23.8775 40.1805 23.9671 40.8467 24.3459 41.4539C24.7248 42.061 25.3716 42.5747 26.1844 42.9142L26.3652 42.9896" stroke="#01133B" stroke-width="0.481725" stroke-linecap="round" stroke-linejoin="round"/>
<path d="M23.3483 39.3766C22.8381 40.8552 23.8325 42.4534 25.7668 43.264L25.9445 43.3385" stroke="#01133B" stroke-width="0.274802" stroke-linecap="round" stroke-linejoin="round" stroke-dasharray="0.82 0.82"/>
<path d="M20.4972 38.5898L19.8162 41.3377" stroke="#01133B" stroke-width="0.481725" stroke-linejoin="round"/>
<path fill-rule="evenodd" clip-rule="evenodd" d="M0.2972 37.1355L8.17241 39.1272L12.2974 36.7103L27.5415 40.063L29.5719 34.6743L37.1684 36.1211C40.4713 36.7501 43.7042 35.3985 44.3892 33.1021L44.392 33.0926L47.8706 21.2942L39.0277 20.064L36.0439 29.1648L23.9315 26.2689L16.5895 25.2141C16.0015 25.1297 15.4023 25.1543 14.8514 25.2856C14.3006 25.4169 13.8175 25.6502 13.4502 25.9622L0.2972 37.1355Z" fill="white" stroke="#01133B" stroke-width="0.481725" stroke-linecap="round" stroke-linejoin="round"/>
<path fill-rule="evenodd" clip-rule="evenodd" d="M37.8229 23.7292L39.731 17.4685C39.7924 17.2666 39.9666 17.0953 40.2154 16.9923C40.4643 16.8892 40.7673 16.8629 41.0579 16.919L41.0607 16.9196C41.2047 16.9478 41.3412 16.9955 41.4624 17.0598C41.5836 17.1242 41.6872 17.204 41.7671 17.2947C41.8471 17.3854 41.9019 17.4852 41.9284 17.5884C41.9549 17.6916 41.9526 17.7962 41.9216 17.8962L41.9213 17.897L40.9423 21.0525" fill="white"/>
<path d="M37.8229 23.7292L39.731 17.4685C39.7924 17.2666 39.9666 17.0953 40.2154 16.9923C40.4643 16.8892 40.7673 16.8629 41.0579 16.919L41.0607 16.9196C41.2047 16.9478 41.3412 16.9955 41.4624 17.0598C41.5836 17.1242 41.6872 17.204 41.7671 17.2947C41.8471 17.3854 41.9019 17.4852 41.9284 17.5884C41.9549 17.6916 41.9526 17.7962 41.9216 17.8962L41.9213 17.897L40.9423 21.0525" stroke="#01133B" stroke-width="0.481725" stroke-linecap="round" stroke-linejoin="round"/>
<path fill-rule="evenodd" clip-rule="evenodd" d="M46.6392 22.6611L47.7575 21.836C47.9546 21.6903 48.2308 21.6098 48.5253 21.6119C48.8198 21.6141 49.1085 21.6988 49.3278 21.8475L49.3313 21.8499C49.5509 22.0002 49.6826 22.2021 49.6975 22.4114C49.7124 22.6207 49.6093 22.8204 49.4108 22.9668L46.5325 25.0909" fill="white"/>
<path d="M46.6392 22.6611L47.7575 21.836C47.9546 21.6903 48.2308 21.6098 48.5253 21.6119C48.8198 21.6141 49.1085 21.6988 49.3278 21.8475L49.3313 21.8499C49.5509 22.0002 49.6826 22.2021 49.6975 22.4114C49.7124 22.6207 49.6093 22.8204 49.4108 22.9668L46.5325 25.0909" stroke="#01133B" stroke-width="0.481725" stroke-linecap="round" stroke-linejoin="round"/>
<path fill-rule="evenodd" clip-rule="evenodd" d="M40.9434 21.0537L41.9224 17.8717C41.9523 17.7742 42.0098 17.6831 42.0914 17.6036C42.173 17.5242 42.2772 17.458 42.398 17.4088C42.5187 17.3596 42.6536 17.3284 42.7949 17.317C42.9362 17.3057 43.081 17.3144 43.2211 17.3426C43.5057 17.4001 43.7536 17.5334 43.9108 17.7134C44.0681 17.8933 44.122 18.1054 44.0607 18.3035L43.0785 21.4822" fill="white"/>
<path d="M40.9434 21.0537L41.9224 17.8717C41.9523 17.7742 42.0098 17.6831 42.0914 17.6036C42.173 17.5242 42.2772 17.458 42.398 17.4088C42.5187 17.3596 42.6536 17.3284 42.7949 17.317C42.9362 17.3057 43.081 17.3144 43.2211 17.3426C43.5057 17.4001 43.7536 17.5334 43.9108 17.7134C44.0681 17.8933 44.122 18.1054 44.0607 18.3035L43.0785 21.4822" stroke="#01133B" stroke-width="0.481725" stroke-linecap="round" stroke-linejoin="round"/>
<path fill-rule="evenodd" clip-rule="evenodd" d="M43.0793 21.4864L44.0579 18.3193C44.0884 18.2204 44.1469 18.128 44.2299 18.0474C44.313 17.9669 44.4189 17.8999 44.5416 17.8501C44.6643 17.8004 44.8014 17.7691 44.9448 17.7578C45.0882 17.7466 45.2352 17.7558 45.3772 17.7848C45.6664 17.844 45.918 17.98 46.0774 18.1633C46.2369 18.3465 46.2914 18.5622 46.229 18.7636L45.2484 21.9371" fill="white"/>
<path d="M43.0793 21.4864L44.0579 18.3193C44.0884 18.2204 44.1469 18.128 44.2299 18.0474C44.313 17.9669 44.4189 17.8999 44.5416 17.8501C44.6643 17.8004 44.8014 17.7691 44.9448 17.7578C45.0882 17.7466 45.2352 17.7558 45.3772 17.7848C45.6664 17.844 45.918 17.98 46.0774 18.1633C46.2369 18.3465 46.2914 18.5622 46.229 18.7636L45.2484 21.9371" stroke="#01133B" stroke-width="0.481725" stroke-linecap="round" stroke-linejoin="round"/>
<path fill-rule="evenodd" clip-rule="evenodd" d="M45.2506 21.9401L46.2209 18.7989C46.2852 18.5905 46.466 18.4139 46.7235 18.308C46.9811 18.2021 47.2943 18.1755 47.5943 18.234L47.5985 18.2349C47.9006 18.2949 48.1645 18.4352 48.3331 18.6253C48.5017 18.8154 48.5613 19.0401 48.4991 19.2506L46.5275 25.9411" fill="white"/>
<path d="M45.2506 21.9401L46.2209 18.7989C46.2852 18.5905 46.466 18.4139 46.7235 18.308C46.9811 18.2021 47.2943 18.1755 47.5943 18.234L47.5985 18.2349C47.9006 18.2949 48.1645 18.4352 48.3331 18.6253C48.5017 18.8154 48.5613 19.0401 48.4991 19.2506L46.5275 25.9411" stroke="#01133B" stroke-width="0.481725" stroke-linecap="round" stroke-linejoin="round"/>
<path fill-rule="evenodd" clip-rule="evenodd" d="M20.2619 25.7384L13.5135 43.1779L-0.869552 35.6683L12.6539 25.722C13.0319 25.4439 13.5069 25.2399 14.0374 25.128C14.5678 25.0161 15.1374 24.9996 15.6962 25.0801L20.2619 25.7384Z" fill="#EDEEF2" stroke="#01133B" stroke-width="0.481725" stroke-linejoin="round"/>
<path fill-rule="evenodd" clip-rule="evenodd" d="M17.8858 25.404L17.9441 28.466L16.4373 28.875C15.9978 28.9944 15.6258 29.2043 15.3672 29.4791C15.1086 29.7538 14.9748 30.0811 14.9823 30.4207L15.1403 37.5899" fill="#EDEEF2"/>
<path d="M17.8858 25.404L17.9441 28.466L16.4373 28.875C15.9978 28.9944 15.6258 29.2043 15.3672 29.4791C15.1086 29.7538 14.9748 30.0811 14.9823 30.4207L15.1403 37.5899" stroke="#01133B" stroke-width="0.481725" stroke-linejoin="round"/>
<path d="M13.2766 33.052L12.1502 34.8739" stroke="#01133B" stroke-width="0.481725" stroke-linecap="round" stroke-linejoin="round"/>
<path fill-rule="evenodd" clip-rule="evenodd" d="M26.8244 26.89L23.8287 41.1596C23.6949 41.7962 23.8007 42.457 24.1357 43.0772C24.4706 43.6973 25.0233 44.2555 25.7394 44.6968L27.8821 46.017L29.9129 34.8528L37.6242 36.4101C40.6925 37.0297 43.7503 35.8419 44.5253 33.7295L47.58 25.4033L37.093 23.0671L35.402 28.8784L26.8244 26.89Z" fill="#EDEEF2" stroke="#01133B" stroke-width="0.481725" stroke-linejoin="round"/>
<path d="M30.1496 32.8923L29.8745 35.0419M29.1564 27.4476L27.2269 29.9581L28.8043 31.6508C29.0384 31.9022 29.1742 32.1897 29.1971 32.4822C29.2199 32.7747 29.1289 33.0609 28.9339 33.3097L24.1525 39.4114" stroke="#01133B" stroke-width="0.481725" stroke-linecap="round" stroke-linejoin="round"/>
<path fill-rule="evenodd" clip-rule="evenodd" d="M36.7098 22.8666L35.7694 25.3842L47.1947 28.8697L47.9461 25.4436L36.7098 22.8666Z" fill="#EDEEF2" stroke="#01133B" stroke-width="0.481725" stroke-linejoin="round"/>
<path fill-rule="evenodd" clip-rule="evenodd" d="M36.3128 25.7559L46.2101 29.0132L46.3984 28.6652L36.3369 25.5664L36.3128 25.7559Z" fill="#01133B"/>
<path d="M19.927 26.6641L22.9094 29.7868L26.5968 27.8955" stroke="#01133B" stroke-width="0.481725" stroke-linecap="round" stroke-linejoin="round"/>
<path fill-rule="evenodd" clip-rule="evenodd" d="M21.8416 26.1735L22.7582 23.4432L26.3635 24.1952L25.4472 26.9255" fill="white"/>
<path d="M21.8416 26.1735L22.7582 23.4432L26.3635 24.1952L25.4472 26.9255" stroke="#01133B" stroke-width="0.502891" stroke-linecap="round" stroke-linejoin="round"/>
<mask id="mask6_412_40578" style="mask-type:alpha" maskUnits="userSpaceOnUse" x="21" y="23" width="6" height="5">
<path d="M22.7591 23.4391L26.3642 24.1909L25.51 26.7354C25.2779 27.4264 24.2828 27.8183 23.2873 27.6108C22.2918 27.4032 21.6727 26.6746 21.9048 25.9836L22.7591 23.4391Z" fill="white"/>
</mask>
<g mask="url(#mask6_412_40578)">
<path d="M25.5214 25.5092C27.7705 25.9783 29.987 25.1867 30.4721 23.7413C30.9575 22.2957 29.5277 20.7438 27.2785 20.2749C25.0297 19.8057 22.813 20.5973 22.3278 22.0427C21.8427 23.4881 23.2725 25.0401 25.5214 25.5092Z" fill="#01133B"/>
</g>
<path fill-rule="evenodd" clip-rule="evenodd" d="M26.3992 18.4664C28.1588 18.8331 29.2526 20.1208 28.8429 21.342C28.8334 21.3701 28.823 21.3982 28.812 21.4259L28.455 22.3296C27.9765 23.5396 26.2022 24.2056 24.4372 23.8376C22.6914 23.4734 21.6057 22.1958 22.0125 20.9841L22.3184 20.0734C22.7442 18.8047 24.5712 18.0851 26.3992 18.4664Z" fill="#01133B"/>
<path fill-rule="evenodd" clip-rule="evenodd" d="M28.3708 21.7383L27.8817 23.195C27.5103 24.3013 25.9173 24.9285 24.3236 24.5963C22.73 24.2638 21.7391 23.0976 22.1103 21.9913L22.5993 20.5346C22.9707 19.4283 24.5637 18.801 26.1574 19.1333C27.751 19.4658 28.7422 20.632 28.3708 21.7383Z" fill="white" stroke="#01133B" stroke-width="0.481725" stroke-linecap="round" stroke-linejoin="round"/>
<path fill-rule="evenodd" clip-rule="evenodd" d="M24.2362 18.6083C23.5232 18.0874 22.8561 18.1489 22.2343 18.7925C21.7754 19.2675 21.4573 20.2204 21.828 21.9704C21.8436 22.043 22.2394 21.2438 22.338 21.1936C23.085 20.8129 23.6923 20.3372 24.16 19.7666C24.6895 19.1207 24.7148 18.7347 24.2362 18.6083Z" fill="#01133B"/>
<path fill-rule="evenodd" clip-rule="evenodd" d="M22.3629 21.2446L22.0397 21.1389C21.9386 21.1058 21.8295 21.0892 21.7208 21.0901C21.6122 21.0911 21.5069 21.1097 21.4131 21.1445C21.3192 21.1793 21.2394 21.2294 21.1796 21.2909C21.1199 21.3524 21.0818 21.4236 21.0684 21.4992C21.0347 21.6878 21.0833 21.8829 21.2079 22.0588C21.3325 22.2347 21.5272 22.3833 21.7666 22.4851L21.9241 22.5519L22.3629 21.2446Z" fill="white" stroke="#01133B" stroke-width="0.481725" stroke-linecap="round" stroke-linejoin="round"/>
<path d="M21.8377 21.5556L21.701 21.9627M21.7517 21.8114L21.529 21.6006M25.5008 22.2448L25.4471 22.783L25.0249 22.7466" stroke="#01133B" stroke-width="0.481725" stroke-linecap="round" stroke-linejoin="round"/>
<path d="M23.5724 21.67C23.8864 21.7355 24.175 21.6871 24.2169 21.5619C24.2589 21.4366 24.0385 21.2821 23.7246 21.2166C23.4106 21.1512 23.122 21.1996 23.0801 21.3247C23.0379 21.45 23.2585 21.6044 23.5724 21.67Z" stroke="#01133B" stroke-width="0.292684" stroke-linecap="round" stroke-linejoin="round"/>
<path d="M23.572 21.674C23.7603 21.7133 23.9471 21.6438 23.9891 21.5185C24.0313 21.3934 23.9126 21.2601 23.7241 21.2208C23.5357 21.1815 23.3489 21.2512 23.307 21.3764C23.265 21.5015 23.3837 21.6348 23.572 21.674Z" fill="#01133B"/>
<path d="M26.7208 22.3339C27.0347 22.3994 27.3234 22.351 27.3654 22.226C27.4073 22.1007 27.1869 21.9462 26.8729 21.8807C26.559 21.8152 26.2705 21.8636 26.2285 21.9886C26.1863 22.1139 26.4067 22.2684 26.7208 22.3339Z" stroke="#01133B" stroke-width="0.292684" stroke-linecap="round" stroke-linejoin="round"/>
<path d="M26.7207 22.3342C26.909 22.3735 27.0958 22.3038 27.1378 22.1787C27.1797 22.0535 27.0613 21.9203 26.8727 21.881C26.6844 21.8417 26.4976 21.9114 26.4557 22.0365C26.4137 22.1617 26.5324 22.2949 26.7207 22.3342Z" fill="#01133B"/>
<path fill-rule="evenodd" clip-rule="evenodd" d="M25.1941 18.8008C27.5559 18.9022 29.2216 19.3222 30.191 20.0608C31.6454 21.1689 29.4418 22.9252 25.9085 21.464C23.5529 20.49 23.3147 19.6021 25.1941 18.8008Z" fill="#01133B"/>
<path fill-rule="evenodd" clip-rule="evenodd" d="M23.439 18.8131C23.8635 18.2569 26.7814 17.7982 28.0356 18.3891C28.8714 18.783 28.37 19.4403 26.531 20.3607C24.1868 19.6998 23.1562 19.184 23.439 18.8131Z" fill="#01133B"/>
<mask id="mask7_412_40578" style="mask-type:alpha" maskUnits="userSpaceOnUse" x="23" y="22" width="3" height="2">
<path d="M23.7037 22.8794L25.633 23.5856C25.2342 23.984 24.763 24.082 24.2197 23.8794C23.6762 23.677 23.5041 23.3435 23.7037 22.8794Z" fill="white"/>
</mask>
<g mask="url(#mask7_412_40578)">
<path d="M23.7038 22.8794L25.6331 23.5857C25.2344 23.984 24.7634 24.082 24.2199 23.8794C23.6764 23.677 23.5045 23.3435 23.7038 22.8794Z" fill="white" stroke="#01133B" stroke-width="0.364943" stroke-linecap="round" stroke-linejoin="round"/>
<path d="M24.1255 24.158C24.7083 24.2794 25.236 24.214 25.3041 24.0116C25.3719 23.8092 24.9546 23.5466 24.3716 23.4251C23.7888 23.3036 23.2611 23.3692 23.193 23.5715C23.1252 23.7738 23.5426 24.0364 24.1255 24.158Z" fill="#01133B"/>
</g>
</g>
<path d="M47.1184 13.9362C47.987 12.913 48.9331 12.4541 49.9564 12.5595C51.4915 12.7177 49.8664 14.1095 49.1141 13.5043C48.3618 12.899 49.0577 11.6819 50.2773 11.2329C51.4969 10.7838 52.2833 10.5122 52.2833 9.84766M40.3816 12.8355C40.4856 11.5175 41.3838 10.5216 43.0763 9.84766M27.0176 13.1C27.0519 14.3062 27.9589 14.7983 29.7388 14.5759C31.5184 14.3536 32.6325 14.805 33.0807 15.9305" stroke="#01133B" stroke-width="1.60575" stroke-linejoin="round"/>
</svg>
